<svg xmlns="http://www.w3.org/2000/svg" width="213" height="69" viewBox="0 0 213 69">
    <defs>
        <linearGradient id="4mzw2b7boa" x1="90.78%" x2="0%" y1="54.745%" y2="46.278%">
            <stop offset="0%" stop-color="#7D4FF6" stop-opacity="0"/>
            <stop offset="100%" stop-color="#362B53"/>
        </linearGradient>
    </defs>
    <g fill="none" fill-rule="evenodd" opacity=".2">
        <g fill="url(#4mzw2b7boa)" fill-rule="nonzero" transform="translate(-1626 -377)">
            <g>
                <path d="M758.547 353.045v2h-5.5v-2h5.5zm11 0v2h-5.5v-2h5.5zm11 0v2h-5.5v-2h5.5zm11 0v2h-5.5v-2h5.5zm11 0v2h-5.5v-2h5.5zm11 0v2h-5.5v-2h5.5zm11 0v2h-5.5v-2h5.5zm11 0v2h-5.5v-2h5.5zm11 0v2h-5.5v-2h5.5zm11 0v2h-5.5v-2h5.5zm11 0v2h-5.5v-2h5.5zm11 0v2h-5.5v-2h5.5zm11 0v2h-5.5v-2h5.5zm11 0v2h-5.5v-2h5.5zM742.49 351.67c1.478.523 3.004.9 4.557 1.126l.584.078-.24 1.986c-1.689-.204-3.352-.573-4.966-1.1l-.603-.205.668-1.885zm-8.89-5.584c1.118 1.108 2.337 2.1 3.643 2.965l.493.319-1.064 1.693c-1.437-.902-2.783-1.944-4.02-3.113l-.46-.444 1.409-1.42zm-7.774-7.775l3.889 3.89-1.414 1.414-3.89-3.89 1.415-1.414zm-7.779-7.778l3.89 3.89-1.415 1.413-3.889-3.889 1.414-1.414zm-7.778-7.778l3.89 3.89-1.415 1.413-3.889-3.889 1.414-1.414zm-7.778-7.778l3.89 3.889-1.415 1.414-3.89-3.889 1.415-1.414zm-7.778-7.778l3.889 3.889-1.414 1.414-3.89-3.89 1.415-1.413zm-7.778-7.779l3.889 3.89-1.414 1.414-3.89-3.89 1.415-1.414zm-4.95-12.02l1.414 1.414-3.536 3.535 3.183 3.182-1.415 1.415-3.182-3.183-3.535 3.536-1.414-1.414 8.485-8.485z" transform="translate(952.855 90)"/>
            </g>
        </g>
    </g>
</svg>
