<svg xmlns="http://www.w3.org/2000/svg" width="237" height="107" viewBox="0 0 237 107">
    <defs>
        <linearGradient id="fczsiwe8aa" x1="29.496%" x2="29.496%" y1="159.428%" y2="20.253%">
            <stop offset="0%" stop-color="#7D4FF6" stop-opacity="0"/>
            <stop offset="100%" stop-color="#362B53"/>
        </linearGradient>
    </defs>
    <g fill="none" fill-rule="evenodd" opacity=".2">
        <g fill="url(#fczsiwe8aa)" fill-rule="nonzero" transform="translate(-1338 -376)">
            <g>
                <path d="M656.595 426.358l3.89 3.89-1.415 1.413-3.889-3.889 1.414-1.414zm-7.778-7.778l3.89 3.89-1.415 1.413-3.889-3.889 1.414-1.414zm-7.778-7.778l3.89 3.889-1.415 1.414-3.89-3.889 1.415-1.414zm-7.778-7.778l3.889 3.889-1.414 1.414-3.89-3.89 1.415-1.413zm-7.778-7.779l3.889 3.89-1.414 1.414-3.89-3.89 1.415-1.414zm-7.778-7.778l3.889 3.89-1.415 1.414-3.889-3.89 1.415-1.414zm-7.779-7.778l3.89 3.89-1.415 1.413-3.889-3.889 1.414-1.414zm-7.778-7.778l3.89 3.889-1.415 1.414-3.889-3.889 1.414-1.414zm-8.835-7.125c1.57.747 3.041 1.687 4.382 2.799l.441.377-1.319 1.503c-1.17-1.028-2.461-1.905-3.842-2.615l-.522-.259.86-1.805zm-9.028-2.04c.986 0 1.97.07 2.943.207l.583.09-.336 1.972c-.877-.149-1.764-.237-2.655-.262l-.535-.007h-2.13v-2h2.13zm-62.63 0v2h-5.5v-2h5.5zm-44 0v2h-5.5v-2h5.5zm11 0v2h-5.5v-2h5.5zm11 0v2h-5.5v-2h5.5zm11 0v2h-5.5v-2h5.5zm22 0v2h-5.5v-2h5.5zm11 0v2h-5.5v-2h5.5zm11 0v2h-5.5v-2h5.5zm11 0v2h-5.5v-2h5.5zm11 0v2h-5.5v-2h5.5zm-114.685-2.34c1.363.747 2.813 1.324 4.317 1.719l.566.139-.448 1.95c-1.696-.39-3.337-.99-4.885-1.783l-.512-.272.962-1.754zm-8.078-7.003l3.778 3.778.106.105-1.403 1.425-.074-.073-.043-.043-3.778-3.778 1.414-1.414zm-7.778-7.779l3.889 3.89-1.414 1.414-3.89-3.89 1.415-1.414zm-7.778-7.778l3.889 3.89-1.415 1.414-3.889-3.89 1.415-1.414zm-7.779-7.778l3.89 3.89-1.415 1.413-3.889-3.889 1.414-1.414zm-7.778-7.778l3.89 3.889-1.415 1.414-3.889-3.889 1.414-1.414zm-7.778-7.778l3.89 3.889-1.415 1.414-3.89-3.889 1.415-1.414zm-7.778-7.778l3.889 3.889-1.414 1.414-3.89-3.89 1.415-1.413zm-7.778-7.779l3.889 3.89-1.414 1.414-3.89-3.89 1.415-1.414zm-4.95-12.02l1.414 1.414-3.536 3.535 3.183 3.182-1.415 1.415-3.182-3.183-3.535 3.536-1.414-1.414 8.485-8.485z" transform="translate(952.855 90)"/>
            </g>
        </g>
    </g>
</svg>
