<svg xmlns="http://www.w3.org/2000/svg" width="281" height="190" viewBox="0 0 281 190">
    <defs>
        <linearGradient id="p14d6akoga" x1="4.087%" x2="73.424%" y1="47.677%" y2="28.386%">
            <stop offset=".282%" stop-color="#7D4FF6" stop-opacity="0"/>
            <stop offset="100%" stop-color="#362B53"/>
        </linearGradient>
    </defs>
    <g fill="none" fill-rule="evenodd" opacity=".2">
        <g fill="url(#p14d6akoga)" fill-rule="nonzero" transform="translate(-999 -284)">
            <g>
                <path d="M-3.536 424.796L0 428.331l3.182-3.181 1.414 1.414-3.182 3.181 3.536 3.536-1.414 1.415-8.486-8.486 1.414-1.414zm14.496-7.425l1.414 1.415-3.889 3.889-1.414-1.415 3.89-3.889zm7.778-7.778l1.415 1.414-3.89 3.89-1.414-1.415 3.89-3.889zm7.779-7.778l1.414 1.414-3.89 3.89-1.414-1.415 3.89-3.889zm7.778-7.778l1.414 1.414-3.89 3.89-1.413-1.415 3.889-3.89zm7.778-7.778l1.414 1.414-3.889 3.889-1.414-1.414 3.889-3.89zm7.778-7.778l1.414 1.414-3.889 3.889-1.414-1.414 3.889-3.89zm7.778-7.779l1.414 1.415-3.889 3.889-1.414-1.415 3.89-3.889zm7.778-7.778l1.415 1.414-3.89 3.89-1.414-1.415 3.89-3.889zm7.779-7.778l1.414 1.414-3.89 3.89-1.414-1.415 3.89-3.889zm7.778-7.778l1.414 1.414-3.89 3.89-1.413-1.415 3.889-3.89zm7.778-7.778l1.414 1.414-3.889 3.889-1.414-1.414 3.889-3.89zm7.778-7.779l1.414 1.415-3.889 3.889-1.414-1.414 3.89-3.89zm7.778-7.778l1.414 1.415-3.889 3.889-1.414-1.415 3.89-3.889zm7.778-7.778l1.415 1.414-3.89 3.89-1.414-1.415 3.89-3.889zm7.779-7.778l1.414 1.414-3.89 3.89-1.413-1.415 3.889-3.89zm7.778-7.778l1.414 1.414-3.89 3.89-1.413-1.415 3.889-3.89zm8.452-7.35l1.063 1.693c-1.314.825-2.56 1.755-3.728 2.782l-.496.446-1.355-1.47c1.399-1.289 2.91-2.444 4.516-3.452zm10.529-4.17l.384 1.962c-1.526.299-3.024.72-4.48 1.258l-.622.238-.736-1.86c1.764-.698 3.59-1.234 5.454-1.599zm11.165-.579v2h-5.35l-.142.002-.02-2 .152-.001h5.36zm11 0v2h-5.5v-2h5.5zm11 0v2h-5.5v-2h5.5zm11 0v2h-5.5v-2h5.5zm11 0v2h-5.5v-2h5.5zm11 0v2h-5.5v-2h5.5zm10.827-.36l.314 1.976c-1.377.219-2.769.345-4.167.376l-.7.008h-.774v-2h.775c1.527 0 3.05-.12 4.552-.36zm10.01-3.561l1.005 1.73c-1.437.834-2.938 1.55-4.488 2.144l-.668.247-.672-1.884c1.673-.596 3.287-1.345 4.823-2.237zm8.207-6.836l1.414 1.415-2.263 2.263c-.362.361-.732.714-1.11 1.057l-.574.507-1.306-1.516c.362-.311.716-.632 1.062-.962l.514-.5 2.263-2.264zm7.778-7.778l1.414 1.414-3.889 3.89-1.414-1.415 3.89-3.889zm7.778-7.778l1.415 1.414-3.89 3.89-1.414-1.415 3.89-3.889zm7.779-7.778l1.414 1.414-3.89 3.89-1.414-1.415 3.89-3.89zm7.778-7.778l1.414 1.414-3.89 3.889-1.413-1.414 3.889-3.89zm7.778-7.779l1.414 1.415-3.889 3.889-1.414-1.414 3.889-3.89zm7.778-7.778l1.414 1.415-3.889 3.889-1.414-1.415 3.89-3.889zm7.778-7.778l1.414 1.414-3.889 3.89-1.414-1.415 3.89-3.889zm7.778-7.778l1.415 1.414-3.89 3.89-1.414-1.415 3.89-3.889zm7.779-7.778l1.414 1.414-3.89 3.89-1.413-1.415 3.889-3.89zm7.778-7.778l1.414 1.414-3.89 3.889-1.413-1.414 3.889-3.89zm5.616-5.616l1.414 1.414-1.727 1.727-1.414-1.414 1.727-1.727z" transform="translate(952.855 90)"/>
            </g>
        </g>
    </g>
</svg>
