<svg xmlns="http://www.w3.org/2000/svg" width="217" height="68" viewBox="0 0 217 68">
    <defs>
        <linearGradient id="0w3anttp8a" x1="93.556%" x2="37.917%" y1="54.269%" y2="50%">
            <stop offset="0%" stop-color="#7D4FF6" stop-opacity="0"/>
            <stop offset="100%" stop-color="#362B53"/>
        </linearGradient>
    </defs>
    <g fill="none" fill-rule="evenodd" opacity=".2">
        <g fill="url(#0w3anttp8a)" fill-rule="nonzero" transform="translate(-1631 -151)">
            <g>
                <path d="M679.913 119.096l3.535 3.535 3.182-3.182 1.415 1.414-3.183 3.182 3.536 3.536-1.414 1.414-8.485-8.485 1.414-1.414zm14.496-7.425l1.414 1.414-3.89 3.89-1.413-1.415 3.889-3.89zm7.778-7.778l1.414 1.414-3.889 3.889-1.414-1.414 3.889-3.89zm7.778-7.778l1.414 1.414-3.889 3.889-1.414-1.414 3.889-3.89zm7.778-7.779l1.414 1.415-3.889 3.889-1.414-1.415 3.89-3.889zm7.778-7.778l1.415 1.414-3.89 3.89-1.414-1.415 3.89-3.889zm7.779-7.778l1.414 1.414-3.89 3.89-1.414-1.415 3.89-3.889zm8.371-7.449l1.064 1.694c-1.326.833-2.57 1.795-3.712 2.873l-.423.41-1.408-1.42c1.36-1.35 2.863-2.541 4.48-3.557zm10.72-3.796l.239 1.986c-1.56.188-3.095.528-4.585 1.015l-.556.19-.668-1.886c1.801-.638 3.669-1.076 5.57-1.305zm11.156-.187v2h-5.5v-2h5.5zm11 0v2h-5.5v-2h5.5zm11 0v2h-5.5v-2h5.5zm11 0v2h-5.5v-2h5.5zm11 0v2h-5.5v-2h5.5zm11 0v2h-5.5v-2h5.5zm11 0v2h-5.5v-2h5.5zm11 0v2h-5.5v-2h5.5zm11 0v2h-5.5v-2h5.5zm11 0v2h-5.5v-2h5.5zm11 0v2h-5.5v-2h5.5zm11 0v2h-5.5v-2h5.5zm10.047 0v2h-4.547v-2h4.547z" transform="translate(952.855 90)"/>
            </g>
        </g>
    </g>
</svg>
