<svg xmlns="http://www.w3.org/2000/svg" width="239" height="239" viewBox="0 0 239 239">
    <defs>
        <filter id="3e5o1aygba">
            <feColorMatrix in="SourceGraphic" values="0 0 0 0 0.862745 0 0 0 0 0.847059 0 0 0 0 0.905882 0 0 0 1.000000 0"/>
        </filter>
    </defs>
    <g fill="none" fill-rule="evenodd" opacity=".3">
        <g>
            <g filter="url(#3e5o1aygba)" transform="translate(-1569 -2369) translate(499 2345)">
                <g fill="#F0EEF6" transform="rotate(-45 708.22 -1219.853)">
                    <rect width="5.2" height="5.2" rx="1.3"/>
                    <rect width="5.2" height="5.2" x="145.6" rx="1.3"/>
                    <rect width="5.2" height="5.2" x="18.2" rx="1.3"/>
                    <rect width="5.2" height="5.2" x="127.4" rx="1.3"/>
                    <rect width="5.2" height="5.2" x="163.8" rx="1.3"/>
                    <rect width="5.2" height="5.2" y="18.2" rx="1.3"/>
                    <rect width="5.2" height="5.2" x="36.4" y="18.2" rx="1.3"/>
                    <rect width="5.2" height="5.2" x="109.2" y="18.2" rx="1.3"/>
                    <rect width="5.2" height="5.2" x="145.6" y="18.2" rx="1.3"/>
                    <rect width="5.2" height="5.2" x="18.2" y="18.2" rx="1.3"/>
                    <rect width="5.2" height="5.2" x="127.4" y="18.2" rx="1.3"/>
                    <rect width="5.2" height="5.2" x="163.8" y="18.2" rx="1.3"/>
                    <rect width="5.2" height="5.2" y="36.4" rx="1.3"/>
                    <rect width="5.2" height="5.2" x="72.8" y="36.4" rx="1.3"/>
                    <rect width="5.2" height="5.2" x="36.4" y="36.4" rx="1.3"/>
                    <rect width="5.2" height="5.2" x="109.2" y="36.4" rx="1.3"/>
                    <rect width="5.2" height="5.2" x="145.6" y="36.4" rx="1.3"/>
                    <rect width="5.2" height="5.2" x="18.2" y="36.4" rx="1.3"/>
                    <rect width="5.2" height="5.2" x="91" y="36.4" rx="1.3"/>
                    <rect width="5.2" height="5.2" x="54.6" y="36.4" rx="1.3"/>
                    <rect width="5.2" height="5.2" x="127.4" y="36.4" rx="1.3"/>
                    <rect width="5.2" height="5.2" x="163.8" y="36.4" rx="1.3"/>
                    <rect width="5.2" height="5.2" y="54.6" rx="1.3"/>
                    <rect width="5.2" height="5.2" x="72.8" y="54.6" rx="1.3"/>
                    <rect width="5.2" height="5.2" x="36.4" y="54.6" rx="1.3"/>
                    <rect width="5.2" height="5.2" x="109.2" y="54.6" rx="1.3"/>
                    <rect width="5.2" height="5.2" x="145.6" y="54.6" rx="1.3"/>
                    <rect width="5.2" height="5.2" x="18.2" y="54.6" rx="1.3"/>
                    <rect width="5.2" height="5.2" x="91" y="54.6" rx="1.3"/>
                    <rect width="5.2" height="5.2" x="54.6" y="54.6" rx="1.3"/>
                    <rect width="5.2" height="5.2" x="127.4" y="54.6" rx="1.3"/>
                    <rect width="5.2" height="5.2" x="163.8" y="54.6" rx="1.3"/>
                    <rect width="5.2" height="5.2" y="72.8" rx="1.3"/>
                    <rect width="5.2" height="5.2" x="72.8" y="72.8" rx="1.3"/>
                    <rect width="5.2" height="5.2" x="36.4" y="72.8" rx="1.3"/>
                    <rect width="5.2" height="5.2" x="109.2" y="72.8" rx="1.3"/>
                    <rect width="5.2" height="5.2" x="145.6" y="72.8" rx="1.3"/>
                    <rect width="5.2" height="5.2" x="18.2" y="72.8" rx="1.3"/>
                    <rect width="5.2" height="5.2" x="91" y="72.8" rx="1.3"/>
                    <rect width="5.2" height="5.2" x="54.6" y="72.8" rx="1.3"/>
                    <rect width="5.2" height="5.2" x="127.4" y="72.8" rx="1.3"/>
                    <rect width="5.2" height="5.2" x="163.8" y="72.8" rx="1.3"/>
                    <rect width="5.2" height="5.2" y="91" rx="1.3"/>
                    <rect width="5.2" height="5.2" x="72.8" y="91" rx="1.3"/>
                    <rect width="5.2" height="5.2" x="36.4" y="91" rx="1.3"/>
                    <rect width="5.2" height="5.2" x="109.2" y="91" rx="1.3"/>
                    <rect width="5.2" height="5.2" x="145.6" y="91" rx="1.3"/>
                    <rect width="5.2" height="5.2" x="18.2" y="91" rx="1.3"/>
                    <rect width="5.2" height="5.2" x="91" y="91" rx="1.3"/>
                    <rect width="5.2" height="5.2" x="54.6" y="91" rx="1.3"/>
                    <rect width="5.2" height="5.2" x="127.4" y="91" rx="1.3"/>
                    <rect width="5.2" height="5.2" x="163.8" y="91" rx="1.3"/>
                    <rect width="5.2" height="5.2" y="109.2" rx="1.3"/>
                    <rect width="5.2" height="5.2" x="72.8" y="109.2" rx="1.3"/>
                    <rect width="5.2" height="5.2" x="36.4" y="109.2" rx="1.3"/>
                    <rect width="5.2" height="5.2" x="109.2" y="109.2" rx="1.3"/>
                    <rect width="5.2" height="5.2" x="145.6" y="109.2" rx="1.3"/>
                    <rect width="5.2" height="5.2" x="18.2" y="109.2" rx="1.3"/>
                    <rect width="5.2" height="5.2" x="91" y="109.2" rx="1.3"/>
                    <rect width="5.2" height="5.2" x="54.6" y="109.2" rx="1.3"/>
                    <rect width="5.2" height="5.2" x="127.4" y="109.2" rx="1.3"/>
                    <rect width="5.2" height="5.2" x="163.8" y="109.2" rx="1.3"/>
                    <rect width="5.2" height="5.2" y="127.4" rx="1.3"/>
                    <rect width="5.2" height="5.2" x="72.8" y="127.4" rx="1.3"/>
                    <rect width="5.2" height="5.2" x="36.4" y="127.4" rx="1.3"/>
                    <rect width="5.2" height="5.2" x="109.2" y="127.4" rx="1.3"/>
                    <rect width="5.2" height="5.2" x="145.6" y="127.4" rx="1.3"/>
                    <rect width="5.2" height="5.2" x="18.2" y="127.4" rx="1.3"/>
                    <rect width="5.2" height="5.2" x="91" y="127.4" rx="1.3"/>
                    <rect width="5.2" height="5.2" x="54.6" y="127.4" rx="1.3"/>
                    <rect width="5.2" height="5.2" x="127.4" y="127.4" rx="1.3"/>
                    <rect width="5.2" height="5.2" x="163.8" y="127.4" rx="1.3"/>
                    <rect width="5.2" height="5.2" x="72.8" y="145.6" rx="1.3"/>
                    <rect width="5.2" height="5.2" x="36.4" y="145.6" rx="1.3"/>
                    <rect width="5.2" height="5.2" x="109.2" y="145.6" rx="1.3"/>
                    <rect width="5.2" height="5.2" x="145.6" y="145.6" rx="1.3"/>
                    <rect width="5.2" height="5.2" x="18.2" y="145.6" rx="1.3"/>
                    <rect width="5.2" height="5.2" x="91" y="145.6" rx="1.3"/>
                    <rect width="5.2" height="5.2" x="54.6" y="145.6" rx="1.3"/>
                    <rect width="5.2" height="5.2" x="127.4" y="145.6" rx="1.3"/>
                    <rect width="5.2" height="5.2" x="163.8" y="145.6" rx="1.3"/>
                    <rect width="5.2" height="5.2" x="72.8" y="163.8" rx="1.3"/>
                    <rect width="5.2" height="5.2" x="109.2" y="163.8" rx="1.3"/>
                    <rect width="5.2" height="5.2" x="145.6" y="163.8" rx="1.3"/>
                    <rect width="5.2" height="5.2" x="91" y="163.8" rx="1.3"/>
                    <rect width="5.2" height="5.2" x="54.6" y="163.8" rx="1.3"/>
                    <rect width="5.2" height="5.2" x="127.4" y="163.8" rx="1.3"/>
                    <rect width="5.2" height="5.2" x="163.8" y="163.8" rx="1.3"/>
                </g>
            </g>
        </g>
    </g>
</svg>
