<svg xmlns="http://www.w3.org/2000/svg" xmlns:xlink="http://www.w3.org/1999/xlink" width="40" height="40" viewBox="0 0 40 40">
    <defs>
        <path id="5p4sjozuua" d="M36.552.055c1.142 0 2.069.927 2.069 2.07v6.51c-.047-.129-.148-.205-.3-.227l-.054-.006-.053-.002H34.93l-.053.002c-.222.015-.348.126-.378.334l-.005.05-.002.052v13.623l-.001.156c-.027 1.445-.428 2.59-1.203 3.436-.804.876-1.935 1.314-3.395 1.314l-.124-.001-.11.001c-1.46 0-2.592-.438-3.396-1.314-.775-.846-1.176-1.991-1.203-3.436l-.001-.156V8.838l-.002-.053c-.016-.24-.144-.367-.383-.383L24.62 8.4h-3.285l-.053.002c-.24.016-.368.144-.384.383l-.001.053v14.937l.001.178c.027 1.47.392 2.726 1.094 3.764.698 1.034 1.617 1.827 2.756 2.38l.157.073.182.082c1.1.474 2.29.724 3.568.749l.214.002h1.811l.214-.002c1.203-.024 2.327-.246 3.373-.668l.195-.081.182-.082.157-.073c.554-.27 1.057-.595 1.507-.978.574 1.032 1.345 1.871 2.312 2.518v4.97c0 1.143-.926 2.07-2.068 2.07H2.069C.926 38.676 0 37.75 0 36.606V2.124C0 .982.926.055 2.069.055h34.483z"/>
    </defs>
    <g fill="none" fill-rule="evenodd">
        <g>
            <g>
                <g>
                    <g transform="translate(-547 -4465) translate(0 4315) translate(547 150) translate(0 .29)">
                        <mask id="yvwvpe878b" fill="#fff">
                            <use xlink:href="#5p4sjozuua"/>
                        </mask>
                        <g fill="#FFF" mask="url(#yvwvpe878b)">
                            <g>
                                <path d="M36.207 155.128L36.207 77.586 113.749 77.586 113.749 155.128z" opacity=".85" transform="rotate(45 108.916 -29.403)"/>
                                <path d="M71.034 77.542L71.034 0 148.577 0 148.577 77.542z" opacity=".5" transform="rotate(45 108.916 -29.403)"/>
                                <path d="M71.034 6.552L0 6.552 0 77.586 71.034 77.586z" opacity=".7" transform="rotate(45 108.916 -29.403)"/>
                            </g>
                        </g>
                    </g>
                </g>
            </g>
        </g>
    </g>
</svg>
