<svg xmlns="http://www.w3.org/2000/svg" width="130" height="131" viewBox="0 0 130 131">
    <defs>
        <filter id="24dhw7d79a">
            <feColorMatrix in="SourceGraphic" values="0 0 0 0 1.000000 0 0 0 0 1.000000 0 0 0 0 1.000000 0 0 0 1.000000 0"/>
        </filter>
    </defs>
    <g fill="none" fill-rule="evenodd" opacity=".1">
        <g>
            <g filter="url(#24dhw7d79a)" transform="translate(-1700 -387) translate(-482)">
                <g fill="#F0EEF6" transform="rotate(-90 1349.873 -832.127)">
                    <rect width="4" height="4" rx="1"/>
                    <rect width="4" height="4" x="56" rx="1"/>
                    <rect width="4" height="4" x="28" rx="1"/>
                    <rect width="4" height="4" x="84" rx="1"/>
                    <rect width="4" height="4" x="112" rx="1"/>
                    <rect width="4" height="4" x="14" rx="1"/>
                    <rect width="4" height="4" x="70" rx="1"/>
                    <rect width="4" height="4" x="42" rx="1"/>
                    <rect width="4" height="4" x="98" rx="1"/>
                    <rect width="4" height="4" x="126" rx="1"/>
                    <rect width="4" height="4" y="14" rx="1"/>
                    <rect width="4" height="4" x="56" y="14" rx="1"/>
                    <rect width="4" height="4" x="28" y="14" rx="1"/>
                    <rect width="4" height="4" x="84" y="14" rx="1"/>
                    <rect width="4" height="4" x="112" y="14" rx="1"/>
                    <rect width="4" height="4" x="14" y="14" rx="1"/>
                    <rect width="4" height="4" x="70" y="14" rx="1"/>
                    <rect width="4" height="4" x="42" y="14" rx="1"/>
                    <rect width="4" height="4" x="98" y="14" rx="1"/>
                    <rect width="4" height="4" x="126" y="14" rx="1"/>
                    <rect width="4" height="4" y="28" rx="1"/>
                    <rect width="4" height="4" x="56" y="28" rx="1"/>
                    <rect width="4" height="4" x="28" y="28" rx="1"/>
                    <rect width="4" height="4" x="84" y="28" rx="1"/>
                    <rect width="4" height="4" x="112" y="28" rx="1"/>
                    <rect width="4" height="4" x="14" y="28" rx="1"/>
                    <rect width="4" height="4" x="70" y="28" rx="1"/>
                    <rect width="4" height="4" x="42" y="28" rx="1"/>
                    <rect width="4" height="4" x="98" y="28" rx="1"/>
                    <rect width="4" height="4" x="126" y="28" rx="1"/>
                    <rect width="4" height="4" y="42" rx="1"/>
                    <rect width="4" height="4" x="56" y="42" rx="1"/>
                    <rect width="4" height="4" x="28" y="42" rx="1"/>
                    <rect width="4" height="4" x="84" y="42" rx="1"/>
                    <rect width="4" height="4" x="112" y="42" rx="1"/>
                    <rect width="4" height="4" x="14" y="42" rx="1"/>
                    <rect width="4" height="4" x="70" y="42" rx="1"/>
                    <rect width="4" height="4" x="42" y="42" rx="1"/>
                    <rect width="4" height="4" x="98" y="42" rx="1"/>
                    <rect width="4" height="4" x="126" y="42" rx="1"/>
                    <rect width="4" height="4" y="56" rx="1"/>
                    <rect width="4" height="4" x="56" y="56" rx="1"/>
                    <rect width="4" height="4" x="28" y="56" rx="1"/>
                    <rect width="4" height="4" x="84" y="56" rx="1"/>
                    <rect width="4" height="4" x="112" y="56" rx="1"/>
                    <rect width="4" height="4" x="14" y="56" rx="1"/>
                    <rect width="4" height="4" x="70" y="56" rx="1"/>
                    <rect width="4" height="4" x="42" y="56" rx="1"/>
                    <rect width="4" height="4" x="98" y="56" rx="1"/>
                    <rect width="4" height="4" x="126" y="56" rx="1"/>
                    <rect width="4" height="4" y="70" rx="1"/>
                    <rect width="4" height="4" x="56" y="70" rx="1"/>
                    <rect width="4" height="4" x="28" y="70" rx="1"/>
                    <rect width="4" height="4" x="84" y="70" rx="1"/>
                    <rect width="4" height="4" x="112" y="70" rx="1"/>
                    <rect width="4" height="4" x="14" y="70" rx="1"/>
                    <rect width="4" height="4" x="70" y="70" rx="1"/>
                    <rect width="4" height="4" x="42" y="70" rx="1"/>
                    <rect width="4" height="4" x="98" y="70" rx="1"/>
                    <rect width="4" height="4" x="126" y="70" rx="1"/>
                    <rect width="4" height="4" y="84" rx="1"/>
                    <rect width="4" height="4" x="56" y="84" rx="1"/>
                    <rect width="4" height="4" x="28" y="84" rx="1"/>
                    <rect width="4" height="4" x="84" y="84" rx="1"/>
                    <rect width="4" height="4" x="112" y="84" rx="1"/>
                    <rect width="4" height="4" x="14" y="84" rx="1"/>
                    <rect width="4" height="4" x="70" y="84" rx="1"/>
                    <rect width="4" height="4" x="42" y="84" rx="1"/>
                    <rect width="4" height="4" x="98" y="84" rx="1"/>
                    <rect width="4" height="4" x="126" y="84" rx="1"/>
                    <rect width="4" height="4" y="98" rx="1"/>
                    <rect width="4" height="4" x="56" y="98" rx="1"/>
                    <rect width="4" height="4" x="28" y="98" rx="1"/>
                    <rect width="4" height="4" x="84" y="98" rx="1"/>
                    <rect width="4" height="4" x="112" y="98" rx="1"/>
                    <rect width="4" height="4" x="14" y="98" rx="1"/>
                    <rect width="4" height="4" x="70" y="98" rx="1"/>
                    <rect width="4" height="4" x="42" y="98" rx="1"/>
                    <rect width="4" height="4" x="98" y="98" rx="1"/>
                    <rect width="4" height="4" x="126" y="98" rx="1"/>
                    <rect width="4" height="4" x="56" y="112" rx="1"/>
                    <rect width="4" height="4" x="28" y="112" rx="1"/>
                    <rect width="4" height="4" x="84" y="112" rx="1"/>
                    <rect width="4" height="4" x="112" y="112" rx="1"/>
                    <rect width="4" height="4" x="14" y="112" rx="1"/>
                    <rect width="4" height="4" x="70" y="112" rx="1"/>
                    <rect width="4" height="4" x="42" y="112" rx="1"/>
                    <rect width="4" height="4" x="98" y="112" rx="1"/>
                    <rect width="4" height="4" x="126" y="112" rx="1"/>
                    <rect width="4" height="4" x="56" y="126" rx="1"/>
                    <rect width="4" height="4" x="84" y="126" rx="1"/>
                    <rect width="4" height="4" x="112" y="126" rx="1"/>
                    <rect width="4" height="4" x="70" y="126" rx="1"/>
                    <rect width="4" height="4" x="42" y="126" rx="1"/>
                    <rect width="4" height="4" x="98" y="126" rx="1"/>
                    <rect width="4" height="4" x="126" y="126" rx="1"/>
                </g>
            </g>
        </g>
    </g>
</svg>
