<svg xmlns="http://www.w3.org/2000/svg" width="39" height="39" viewBox="0 0 39 39">
    <g fill="none" fill-rule="evenodd" opacity=".1">
        <g fill="#7D4FF6">
            <g>
                <g>
                    <g>
                        <path d="M16.764 5.35c.707 0 1.289.54 1.355 1.23l.006.132v13.716h13.717c.664 0 1.216.475 1.337 1.103l.018.128.007.131c0 9.08-7.36 16.44-16.44 16.44-9.08 0-16.44-7.36-16.44-16.44 0-9.08 7.36-16.44 16.44-16.44zm-1.362 2.79l-.173.018C8.376 8.92 3.047 14.733 3.047 21.79c0 7.576 6.141 13.717 13.717 13.717 6.948 0 12.69-5.166 13.593-11.867l.04-.315.016-.174h-13.65c-.663 0-1.215-.474-1.336-1.102l-.018-.128-.006-.131-.001-13.65zM21.79.324c9.08 0 16.44 7.36 16.44 16.44 0 .707-.54 1.289-1.23 1.355l-.132.006H21.79c-.708 0-1.29-.54-1.355-1.23l-.006-.131V1.685c0-.751.61-1.36 1.361-1.36zm1.361 2.79v12.288h12.288l-.017-.173c-.695-6.242-5.578-11.22-11.775-12.058l-.322-.04-.174-.017z" transform="translate(-1382 -401) translate(-482) translate(1676 -1) translate(188 402)"/>
                    </g>
                </g>
            </g>
        </g>
    </g>
</svg>
