<svg xmlns="http://www.w3.org/2000/svg" width="40" height="40" viewBox="0 0 40 40">
    <g fill="none" fill-rule="evenodd">
        <g>
            <g>
                <g>
                    <path d="M0 0H40V40H0z" opacity=".2" transform="translate(-1334 -1748) translate(523 1544) translate(811 204)"/>
                    <g stroke-linecap="round" stroke-linejoin="round" stroke-width="2" transform="translate(-1334 -1748) translate(523 1544) translate(811 204) translate(3 3)">
                        <path stroke="#7D4FF6" d="M3.455 26.273v-3.67c0-.383.31-.694.693-.694h22.616c.383 0 .693.31.693.694v2.579"/>
                        <path stroke="#BD9FFF" d="M15.455 17.545L15.455 26.273"/>
                        <circle cx="3.455" cy="29.545" r="3.273" stroke="#7D4FF6"/>
                        <path stroke="#7D4FF6" d="M17.636 4.455H14.68c-.934 0-1.738.663-1.915 1.581-.177.918.32 1.833 1.188 2.181l3.002 1.2c.87.348 1.37 1.264 1.192 2.183-.178.92-.983 1.583-1.92 1.582h-2.953M15.455 4.455L15.455 3.364M15.455 14.273L15.455 13.182"/>
                        <circle cx="15.455" cy="8.818" r="8.727" stroke="#7D4FF6"/>
                        <path stroke="#BD9FFF" d="M12.182 26.273H18.727V32.818H12.182z"/>
                        <path stroke="#7D4FF6" d="M23.091 32.818L31.818 32.818 27.455 25.182z"/>
                    </g>
                </g>
            </g>
        </g>
    </g>
</svg>
