<svg xmlns="http://www.w3.org/2000/svg" width="40" height="40" viewBox="0 0 40 40">
    <g fill="none" fill-rule="evenodd">
        <g>
            <g>
                <g>
                    <path d="M0 0H40V40H0z" opacity=".2" transform="translate(-548 -2005) translate(523 1544) translate(25 461)"/>
                    <g stroke-linecap="round" stroke-linejoin="round" stroke-width="2">
                        <g transform="translate(-548 -2005) translate(523 1544) translate(25 461) translate(3 4)">
                            <path stroke="#7D4FF6" d="M17.6 2.133h-3.733c-.916-.003-1.705.646-1.879 1.546-.174.899.316 1.795 1.168 2.134l3.776 1.173c.85.34 1.338 1.235 1.165 2.134-.174.899-.961 1.548-1.877 1.547h-4.487M14.933 2.133L14.933 0M14.933 13.867L14.933 10.667"/>
                            <circle cx="5.333" cy="24" r="3.733" stroke="#BD9FFF"/>
                            <path stroke="#BD9FFF" d="M10.667 32c-1.05-1.97-3.101-3.2-5.334-3.2C3.101 28.8 1.05 30.03 0 32"/>
                            <circle cx="16" cy="24" r="3.733" stroke="#7D4FF6"/>
                            <circle cx="26.667" cy="24" r="3.733" stroke="#BD9FFF"/>
                            <path stroke="#BD9FFF" d="M32 32c-1.05-1.97-3.101-3.2-5.333-3.2-2.233 0-4.283 1.23-5.334 3.2"/>
                            <path stroke="#7D4FF6" d="M21.333 32c-1.05-1.97-3.1-3.2-5.333-3.2-2.232 0-4.283 1.23-5.333 3.2M8 13.867C4.171 10.037 4.171 3.829 8 0M21.867 0c3.828 3.83 3.828 10.037 0 13.867"/>
                        </g>
                    </g>
                </g>
            </g>
        </g>
    </g>
</svg>
