<svg xmlns="http://www.w3.org/2000/svg" width="52" height="52" viewBox="0 0 52 52">
    <g fill="none" fill-rule="evenodd">
        <g>
            <g>
                <g>
                    <path fill="#DCD8E7" d="M24 8v16c0 2.21-1.79 4-4 4H4c-2.21 0-4-1.79-4-4V8c0-2.21 1.79-4 4-4h16c2.21 0 4 1.79 4 4z" opacity=".6" transform="translate(-739 -1003) translate(-820 877) translate(1559 126)"/>
                    <path fill="#7D4FF6" fill-rule="nonzero" d="M27.796 23.707c-1.46.618-2.422 2.07-2.421 3.677v6.491c-.014 7.18 4.967 13.407 11.978 14.97.18.04.365.04.544 0 7.01-1.563 11.992-7.79 11.978-14.972v-6.49c0-1.536-.878-2.931-2.25-3.598l-.17-.078c-6.26-2.776-13.4-2.776-19.66 0zm18.645 2.285l.019.009c.555.235.915.779.915 1.382v6.492l-.003.316c-.127 5.668-3.967 10.567-9.408 12.062l-.339.087-.339-.087c-5.542-1.523-9.422-6.577-9.411-12.376v-6.494c0-.603.36-1.147.915-1.382 5.633-2.498 12.037-2.498 17.65-.009z" transform="translate(-739 -1003) translate(-820 877) translate(1559 126)"/>
                    <path fill="#7D4FF6" fill-rule="nonzero" d="M37.625 27.125c.647 0 1.18.492 1.244 1.122l.006.128v11c0 .69-.56 1.25-1.25 1.25-.647 0-1.18-.492-1.244-1.122l-.006-.128v-11c0-.69.56-1.25 1.25-1.25z" transform="translate(-739 -1003) translate(-820 877) translate(1559 126)"/>
                    <path fill="#7D4FF6" fill-rule="nonzero" d="M43.125 32.625c.69 0 1.25.56 1.25 1.25 0 .647-.492 1.18-1.122 1.244l-.128.006h-11c-.69 0-1.25-.56-1.25-1.25 0-.647.492-1.18 1.122-1.244l.128-.006h11zM21.125 29.875c.69 0 1.25.56 1.25 1.25 0 .647-.492 1.18-1.122 1.244l-.128.006h-8.25c-.69 0-1.25-.56-1.25-1.25 0-.647.492-1.18 1.122-1.244l.128-.006h8.25z" transform="translate(-739 -1003) translate(-820 877) translate(1559 126)"/>
                    <path fill="#7D4FF6" fill-rule="nonzero" d="M21.125 16.125c.647 0 1.18.492 1.244 1.122l.006.128v13.75c0 .69-.56 1.25-1.25 1.25-.647 0-1.18-.492-1.244-1.122l-.006-.128v-13.75c0-.69.56-1.25 1.25-1.25zM15.625 21.625c.647 0 1.18.492 1.244 1.122l.006.128v8.25c0 .69-.56 1.25-1.25 1.25-.647 0-1.18-.492-1.244-1.122l-.006-.128v-8.25c0-.69.56-1.25 1.25-1.25z" transform="translate(-739 -1003) translate(-820 877) translate(1559 126)"/>
                    <path fill="#BD9FFF" fill-rule="nonzero" d="M29.611 5.125c.985 0 1.932.363 2.663 1.015l.165.156 5.265 5.266c.696.696 1.11 1.622 1.165 2.6l.006.226V16c0 .69-.56 1.25-1.25 1.25-.647 0-1.18-.492-1.244-1.122L36.375 16v-1.611c0-.348-.12-.683-.34-.95l-.099-.11-5.265-5.265c-.246-.246-.569-.398-.911-.432l-.149-.007H10.125c-.78 0-1.42.595-1.493 1.356l-.007.144v30.25c0 .78.595 1.42 1.356 1.493l.144.007h9.625c.69 0 1.25.56 1.25 1.25 0 .647-.492 1.18-1.122 1.244l-.128.006h-9.625c-2.142 0-3.891-1.684-3.995-3.8l-.005-.2V9.125c0-2.142 1.684-3.891 3.8-3.995l.2-.005h19.486z" transform="translate(-739 -1003) translate(-820 877) translate(1559 126)"/>
                </g>
            </g>
        </g>
    </g>
</svg>
