<svg xmlns="http://www.w3.org/2000/svg" width="52" height="52" viewBox="0 0 52 52">
    <g fill="none" fill-rule="evenodd">
        <g>
            <g>
                <g>
                    <path fill="#DCD8E7" d="M4 24h16c2.21 0 4 1.79 4 4v16c0 2.21-1.79 4-4 4H4c-2.21 0-4-1.79-4-4V28c0-2.21 1.79-4 4-4z" opacity=".6" transform="translate(-739 -1211) translate(-820 877) translate(1559 334) rotate(90 12 36)"/>
                    <path fill="#BD9FFF" fill-rule="nonzero" d="M4.223 4.89c.505-.401 1.224-.349 1.666.1l.09.102 2.934 3.7c.146.184.236.405.262.637l.008.14v8.765c-.037 1.575 1.086 3.204 3.755 5.622l.554.494c.096.084.193.17.293.255l2.288 1.938c.526.446.592 1.235.145 1.762-.446.527-1.235.592-1.761.146l-1.994-1.685-.642-.556-.601-.536c-3.103-2.807-4.51-4.836-4.538-7.243l.001-.227v-8.3L4.02 6.645c-.4-.505-.347-1.223.101-1.665l.102-.09z" transform="translate(-739 -1211) translate(-820 877) translate(1559 334)"/>
                    <path fill="#7D4FF6" fill-rule="nonzero" d="M15.267 16.198c.647 0 1.18.492 1.243 1.122l.007.128v23.685c0 .881.676 1.604 1.538 1.677l.145.007h14.667c.69 0 1.25.56 1.25 1.25 0 .647-.492 1.18-1.123 1.243l-.127.007H18.2c-2.24 0-4.07-1.761-4.178-3.975l-.005-.209V17.448c0-.69.56-1.25 1.25-1.25z" transform="translate(-739 -1211) translate(-820 877) translate(1559 334)"/>
                    <path fill="#BD9FFF" fill-rule="nonzero" d="M12.646 1.962c.573-.385 1.35-.232 1.734.341.986 1.469 1.674 3.114 2.026 4.844l.081.435.018.21-.001 2.349 5.026 5.128c.852.875 1.204 2.115.95 3.3l-.056.22c-.352 1.25-1.344 2.215-2.601 2.535-1.184.3-2.434-.015-3.331-.827l-.164-.158-3.46-3.543c-.482-.494-.472-1.286.022-1.768.46-.45 1.18-.472 1.667-.071l.1.092 3.46 3.545c.283.29.698.406 1.09.307.392-.1.701-.4.811-.79.098-.346.024-.715-.19-.994l-.086-.1-5.38-5.49c-.196-.2-.318-.46-.35-.736l-.007-.139-.001-2.748-.054-.287c-.262-1.272-.748-2.489-1.434-3.593l-.211-.327c-.385-.573-.232-1.35.34-1.735zM38.95 23.639c0-1.064 1.244-1.641 2.057-.955l.634.541.304.263.579.51.543.491c.088.08.174.16.258.24l.49.466.455.451c2.117 2.15 3.035 3.835 3.049 5.841l-.002.209-.001 8.297 2.664 3.36c.4.505.347 1.223-.101 1.665l-.102.09c-.505.401-1.224.349-1.666-.1l-.09-.102-2.934-3.7c-.146-.184-.236-.405-.262-.637l-.008-.14v-8.763c.034-1.43-.84-2.848-3-4.916l-.367-.346v7.635c0 1.079-1.262 1.633-2.055.956l-.09-.083-3.423-3.506c-.436-.447-1.153-.457-1.6-.02-.416.405-.454 1.052-.11 1.498l.086.1 5.387 5.49c.197.2.32.46.35.737l.008.139-.001 2.742.055.289c.264 1.27.75 2.485 1.435 3.587l.211.327c.385.574.232 1.35-.34 1.735-.574.385-1.35.232-1.735-.341-.985-1.466-1.672-3.109-2.026-4.836l-.081-.433-.018-.211-.001-2.349-5.032-5.13c-1.352-1.386-1.37-3.578-.077-4.987l.144-.148c1.387-1.352 3.579-1.37 4.987-.078l.148.144 1.278 1.308v-7.33z" transform="translate(-739 -1211) translate(-820 877) translate(1559 334)"/>
                    <path fill="#7D4FF6" fill-rule="nonzero" d="M28.913 35.483c.69 0 1.25.56 1.25 1.25 0 .648-.492 1.18-1.123 1.244l-.127.006h-7.78c-.69 0-1.25-.56-1.25-1.25 0-.647.492-1.18 1.123-1.243l.127-.007h7.78zM24.067 28.15c.69 0 1.25.56 1.25 1.25 0 .647-.492 1.18-1.123 1.244l-.127.006h-2.934c-.69 0-1.25-.56-1.25-1.25 0-.647.492-1.18 1.123-1.244l.127-.006h2.934zM32.406 2.717c3.634-1.305 7.696-.19 10.155 2.788.44.532.364 1.32-.168 1.76-.533.44-1.32.364-1.76-.168-1.787-2.165-4.74-2.976-7.383-2.027-2.559.919-4.293 3.298-4.4 5.997l-.006.262v2.16c0 .69-.56 1.25-1.25 1.25-.647 0-1.18-.492-1.244-1.123l-.006-.128v-2.16c.002-3.861 2.427-7.306 6.062-8.611zM43.406 8.642c.647 0 1.18.492 1.244 1.122l.006.128v1.438c0 3.75-2.29 7.122-5.776 8.507-3.486 1.385-7.464.504-10.04-2.225-.473-.502-.45-1.293.052-1.767.502-.473 1.293-.45 1.767.051 1.872 1.984 4.764 2.625 7.298 1.618 2.453-.974 4.09-3.301 4.194-5.922l.005-.263V9.892c0-.69.56-1.25 1.25-1.25z" transform="translate(-739 -1211) translate(-820 877) translate(1559 334)"/>
                    <path fill="#7D4FF6" fill-rule="nonzero" d="M23.835 9.727c.455-.456 1.175-.486 1.666-.091l.102.09 1.99 1.991 1.992-1.99c.455-.456 1.175-.486 1.666-.091l.102.09c.455.456.486 1.176.09 1.667l-.09.101-2.875 2.875c-.456.456-1.176.486-1.667.092l-.101-.092-2.875-2.875c-.488-.488-.488-1.28 0-1.767zM42.522 9.008c.456-.456 1.176-.486 1.667-.091l.101.09 2.875 2.876c.488.488.488 1.28 0 1.768-.455.455-1.175.486-1.666.09l-.102-.09-1.991-1.992-1.99 1.992c-.456.455-1.176.486-1.667.09l-.102-.09c-.455-.456-.486-1.176-.09-1.667l.09-.101 2.875-2.875z" transform="translate(-739 -1211) translate(-820 877) translate(1559 334)"/>
                </g>
            </g>
        </g>
    </g>
</svg>
