<svg xmlns="http://www.w3.org/2000/svg" width="52" height="52" viewBox="0 0 52 52">
    <g fill="none" fill-rule="evenodd">
        <g>
            <g>
                <g>
                    <path fill="#DCD8E7" d="M24 24v16c0 2.21-1.79 4-4 4H4c-2.21 0-4-1.79-4-4V24c0-2.21 1.79-4 4-4h16c2.21 0 4 1.79 4 4z" opacity=".8" transform="translate(-149 -1003) translate(-820 877) translate(969 126)"/>
                    <path fill="#7D4FF6" fill-rule="nonzero" d="M14.649 22.153c1.629-5.599 7.269-9.022 12.987-7.882.677.135 1.117.793.982 1.47-.135.677-.793 1.117-1.47.982-4.447-.887-8.832 1.775-10.099 6.128-1.266 4.354 1.008 8.952 5.236 10.59.644.248.964.972.714 1.616-.249.644-.973.964-1.617.715-5.437-2.106-8.362-8.02-6.733-13.619z" transform="translate(-149 -1003) translate(-820 877) translate(969 126)"/>
                    <path fill="#7D4FF6" fill-rule="nonzero" d="M6.527 21.8C8.42 11.534 18.164 4.655 28.473 6.307c.682.11 1.146.75 1.037 1.432-.11.682-.75 1.146-1.432 1.037-8.969-1.438-17.445 4.547-19.092 13.48-1.648 8.932 4.137 17.546 13.028 19.401.676.141 1.11.804.968 1.48-.14.675-.803 1.109-1.479.968C11.283 41.97 4.633 32.069 6.527 21.8z" transform="translate(-149 -1003) translate(-820 877) translate(969 126)"/>
                    <path fill="#BD9FFF" fill-rule="nonzero" d="M31.79 16.86c.489-.489 1.28-.489 1.768 0 .456.455.486 1.175.091 1.665l-.09.102-7.988 7.987c-.488.488-1.28.488-1.767 0-.456-.456-.486-1.176-.092-1.667l.092-.101 7.986-7.987z" transform="translate(-149 -1003) translate(-820 877) translate(969 126)"/>
                    <path fill="#BD9FFF" fill-rule="nonzero" d="M39.112 3.546l-6.225 6.118c-.193.19-.32.437-.36.704l-1.089 7.188c-.126.832.59 1.549 1.423 1.423l7.188-1.089c.267-.04.515-.167.704-.36l6.118-6.225.085-.095c.581-.72.196-1.83-.741-2.009l-4.196-.803-.803-4.195c-.188-.98-1.392-1.357-2.104-.657zm.087 3.42l.524 2.736.03.123c.132.443.501.781.963.87l2.735.522-4.189 4.263-5.098.773.771-5.097 4.264-4.19z" transform="translate(-149 -1003) translate(-820 877) translate(969 126)"/>
                    <path fill="#7D4FF6" fill-rule="nonzero" d="M39.063 23.313c-7.042 0-12.75 5.708-12.75 12.75 0 7.041 5.708 12.75 12.75 12.75 7.041 0 12.75-5.709 12.75-12.75 0-7.042-5.709-12.75-12.75-12.75zm0 2.5c5.66 0 10.25 4.589 10.25 10.25 0 5.66-4.59 10.25-10.25 10.25-5.661 0-10.25-4.59-10.25-10.25 0-5.661 4.589-10.25 10.25-10.25z" transform="translate(-149 -1003) translate(-820 877) translate(969 126)"/>
                    <path fill="#7D4FF6" fill-rule="nonzero" d="M43.188 31.968c.414-.552 1.197-.664 1.75-.25.515.386.647 1.095.326 1.636l-.076.114-5.57 7.426c-.467.623-1.182 1.012-1.959 1.067-.712.05-1.412-.185-1.949-.649l-.142-.132-2.875-2.875c-.488-.488-.488-1.28 0-1.767.456-.456 1.176-.486 1.666-.092l.102.092 2.874 2.874c.04.039.093.059.148.055.036-.003.07-.016.1-.037l.037-.037 5.568-7.425z" transform="translate(-149 -1003) translate(-820 877) translate(969 126)"/>
                </g>
            </g>
        </g>
    </g>
</svg>
