<svg xmlns="http://www.w3.org/2000/svg" width="52" height="52" viewBox="0 0 52 52">
    <g fill="none" fill-rule="evenodd">
        <g>
            <g>
                <g>
                    <path fill="#DCD8E7" d="M24 6h16c2.21 0 4 1.79 4 4v16c0 2.21-1.79 4-4 4H24c-2.21 0-4-1.79-4-4V10c0-2.21 1.79-4 4-4z" opacity=".6" transform="translate(-149 -1211) translate(-820 877) translate(969 334) rotate(90 32 18)"/>
                    <path fill="#BD9FFF" fill-rule="nonzero" d="M7.18 1.015c-2.3 0-4.165 1.865-4.165 4.165S4.88 9.345 7.18 9.345s4.165-1.865 4.165-4.165S9.48 1.015 7.18 1.015zm0 2.5c.92 0 1.665.745 1.665 1.665S8.099 6.845 7.18 6.845c-.92 0-1.665-.746-1.665-1.665 0-.92.745-1.665 1.665-1.665z" transform="translate(-149 -1211) translate(-820 877) translate(969 334)"/>
                    <path fill="#BD9FFF" fill-rule="nonzero" d="M8.528 6.157c.378-.521 1.084-.665 1.631-.352l.115.074L12.77 7.69c.56.405.684 1.187.279 1.746-.379.522-1.085.665-1.632.352l-.114-.074-2.498-1.811c-.559-.405-.683-1.187-.278-1.746zM7.18 38.655c-2.3 0-4.165 1.865-4.165 4.165s1.865 4.165 4.165 4.165 4.165-1.865 4.165-4.165-1.865-4.165-4.165-4.165zm0 2.5c.92 0 1.665.746 1.665 1.665 0 .92-.746 1.665-1.665 1.665-.92 0-1.665-.745-1.665-1.665s.745-1.665 1.665-1.665z" transform="translate(-149 -1211) translate(-820 877) translate(969 334)"/>
                    <path fill="#BD9FFF" fill-rule="nonzero" d="M11.304 38.285c.558-.406 1.34-.281 1.745.277.379.522.296 1.238-.171 1.66l-.106.086-2.498 1.813c-.559.405-1.34.28-1.746-.278-.378-.521-.295-1.237.172-1.66l.106-.086 2.498-1.812zM44.82 1.015c-2.3 0-4.165 1.865-4.165 4.165s1.865 4.165 4.165 4.165 4.165-1.865 4.165-4.165-1.865-4.165-4.165-4.165zm0 2.5c.92 0 1.665.745 1.665 1.665s-.745 1.665-1.665 1.665-1.665-.746-1.665-1.665c0-.92.746-1.665 1.665-1.665z" transform="translate(-149 -1211) translate(-820 877) translate(969 334)"/>
                    <path fill="#BD9FFF" fill-rule="nonzero" d="M41.726 5.88c.559-.406 1.34-.282 1.746.277.378.522.295 1.238-.172 1.66l-.106.086-2.498 1.811c-.559.405-1.34.28-1.746-.278-.378-.522-.295-1.237.173-1.66l.106-.086 2.497-1.81zM44.82 38.655c-2.3 0-4.165 1.865-4.165 4.165s1.865 4.165 4.165 4.165 4.165-1.865 4.165-4.165-1.865-4.165-4.165-4.165zm0 2.5c.92 0 1.665.746 1.665 1.665 0 .92-.745 1.665-1.665 1.665s-1.665-.745-1.665-1.665.746-1.665 1.665-1.665z" transform="translate(-149 -1211) translate(-820 877) translate(969 334)"/>
                    <path fill="#BD9FFF" fill-rule="nonzero" d="M38.95 38.562c.379-.521 1.085-.664 1.632-.351l.114.074 2.498 1.812c.559.406.683 1.187.278 1.746-.379.522-1.085.665-1.632.352l-.114-.074-2.498-1.813c-.559-.405-.683-1.187-.277-1.746z" transform="translate(-149 -1211) translate(-820 877) translate(969 334)"/>
                    <path fill="#7D4FF6" fill-rule="nonzero" d="M33.362 24.616c.488-.488 1.28-.488 1.768 0 .455.456.486 1.176.091 1.666l-.091.102-3.969 3.969c-.375.375-.884.586-1.415.586-.471 0-.926-.167-1.284-.467l-.13-.12-1.586-1.586-3.616 3.618c-.456.455-1.176.486-1.666.091l-.102-.091c-.455-.456-.486-1.176-.091-1.666l.091-.102 3.97-3.97c.375-.375.884-.586 1.415-.586.471 0 .926.167 1.284.467l.13.12 1.585 1.585 3.616-3.616z" transform="translate(-149 -1211) translate(-820 877) translate(969 334)"/>
                    <path fill="#7D4FF6" fill-rule="nonzero" d="M35.746 11.5h-19.5c-1.519 0-2.75 1.231-2.75 2.75v19.5c0 1.519 1.231 2.75 2.75 2.75h19.5c1.519 0 2.75-1.231 2.75-2.75v-19.5c0-1.519-1.231-2.75-2.75-2.75zm-19.5 2.5h19.5c.138 0 .25.112.25.25v19.5c0 .138-.112.25-.25.25h-19.5c-.138 0-.25-.112-.25-.25v-19.5c0-.138.112-.25.25-.25z" transform="translate(-149 -1211) translate(-820 877) translate(969 334)"/>
                    <path fill="#7D4FF6" fill-rule="nonzero" d="M22.246 14.5c-3.176 0-5.75 2.574-5.75 5.75S19.07 26 22.246 26s5.75-2.574 5.75-5.75-2.574-5.75-5.75-5.75zm0 2.5c1.795 0 3.25 1.455 3.25 3.25s-1.455 3.25-3.25 3.25-3.25-1.455-3.25-3.25S20.451 17 22.246 17z" transform="translate(-149 -1211) translate(-820 877) translate(969 334)"/>
                    <path fill="#7D4FF6" fill-rule="nonzero" d="M22.246 14.5c.647 0 1.18.492 1.244 1.122l.006.128v3.983l2.816 2.815c.455.456.486 1.176.091 1.666l-.091.102c-.456.455-1.176.486-1.666.091l-.102-.091-3.182-3.182c-.2-.201-.326-.463-.358-.743l-.008-.141v-4.5c0-.69.56-1.25 1.25-1.25zM33.496 16c.69 0 1.25.56 1.25 1.25 0 .647-.492 1.18-1.122 1.244l-.128.006h-3c-.69 0-1.25-.56-1.25-1.25 0-.647.492-1.18 1.122-1.244l.128-.006h3z" transform="translate(-149 -1211) translate(-820 877) translate(969 334)"/>
                </g>
            </g>
        </g>
    </g>
</svg>
