<svg xmlns="http://www.w3.org/2000/svg" width="52" height="52" viewBox="0 0 52 52">
    <g fill="none" fill-rule="evenodd">
        <g>
            <g>
                <g>
                    <g>
                        <path fill="#DCD8E7" d="M4 27h16c2.21 0 4 1.79 4 4v16c0 2.21-1.79 4-4 4H4c-2.21 0-4-1.79-4-4V31c0-2.21 1.79-4 4-4z" opacity=".6" transform="translate(-1142 -1224) translate(399 980) translate(153) translate(590 244) rotate(90 12 39)"/>
                        <g stroke-linecap="round" stroke-linejoin="round" stroke-width="2.5">
                            <g>
                                <path stroke="#65BAA8" d="M11.316 9.507l-8.558 3.78c-1.389.614-2.017 2.237-1.404 3.626l4.847 10.98M21.037 27.893l18.806-8.306c.667-.295 1.19-.842 1.454-1.522s.247-1.437-.048-2.105L35.09 2.014C34.475.624 32.852-.004 31.463.61l-9.325 4.117" transform="translate(-1142 -1224) translate(399 980) translate(153) translate(590 244) translate(7 6)"/>
                                <path stroke="#BD9FFF" d="M6.133 32.746L8.95 41.482M15.551 32.746L16.996 41.482M39.084 41.482l2.497-6.303c.125-.594-.024-1.212-.405-1.684-.382-.472-.955-.747-1.562-.749H2.386c-.607.002-1.18.277-1.562.749-.381.472-.53 1.09-.405 1.684l2.497 6.303M35.903 32.746L33.087 41.482M26.449 32.746L25.041 41.482" transform="translate(-1142 -1224) translate(399 980) translate(153) translate(590 244) translate(7 6)"/>
                                <path stroke="#7D4FF6" d="M18.644 19.607c1.15.668 2.555.733 3.762.172 1.763-.494 2.821-2.292 2.398-4.074-.968-1.555-2.991-2.068-4.583-1.162-1.593.905-3.617.39-4.584-1.166-.422-1.78.636-3.577 2.398-4.072 1.207-.56 2.611-.497 3.762.17M22.406 19.779L23.132 21.523M17.315 7.562L18.041 9.305" transform="translate(-1142 -1224) translate(399 980) translate(153) translate(590 244) translate(7 6)"/>
                            </g>
                        </g>
                    </g>
                </g>
            </g>
        </g>
    </g>
</svg>
