<svg xmlns="http://www.w3.org/2000/svg" width="151" height="330" viewBox="0 0 151 330">
    <defs>
        <linearGradient id="cosfz1qjla" x1="35.711%" x2="100%" y1="0%" y2="0%">
            <stop offset="0%" stop-color="#DCD8E7" stop-opacity="0"/>
            <stop offset="100%" stop-color="#DCD8E7"/>
        </linearGradient>
    </defs>
    <g fill="none" fill-rule="evenodd">
        <g fill="url(#cosfz1qjla)" fill-rule="nonzero" transform="translate(-432 -650)">
            <path d="M577.424 965.219v2.97c2.822.368 5 2.78 5 5.702 0 3.175-2.574 5.75-5.75 5.75-3.175 0-5.75-2.575-5.75-5.75 0-2.922 2.179-5.334 5-5.702v-2.97h1.5zm-.75 4.422c-2.347 0-4.25 1.902-4.25 4.25 0 2.347 1.903 4.25 4.25 4.25s4.25-1.903 4.25-4.25c0-2.348-1.903-4.25-4.25-4.25zm.75-15.422v5.5h-1.5v-5.5h1.5zm0-11v5.5h-1.5v-5.5h1.5zm0-11v5.5h-1.5v-5.5h1.5zm0-11v5.5h-1.5v-5.5h1.5zm0-11v5.5h-1.5v-5.5h1.5zm0-11v5.5h-1.5v-5.5h1.5zm0-11v5.5h-1.5v-5.5h1.5zm0-11v5.5h-1.5v-5.5h1.5zm0-11v5.5h-1.5v-5.5h1.5zm0-11v5.5h-1.5v-5.5h1.5zm0-11v5.5h-1.5v-5.5h1.5zm0-11v5.5h-1.5v-5.5h1.5zm0-11v5.5h-1.5v-5.5h1.5zm0-11v5.5h-1.5v-5.5h1.5zm0-11v5.5h-1.5v-5.5h1.5zm0-11v5.5h-1.5v-5.5h1.5zm0-11v5.5h-1.5v-5.5h1.5zm0-11v5.5h-1.5v-5.5h1.5zm0-11v5.5h-1.5v-5.5h1.5zm-.077-11.071c.034.55.057 1.1.068 1.65l.01.827v3.094h-1.5v-3.093c-.001-.531-.012-1.062-.034-1.592l-.04-.794 1.496-.092zm-2.22-10.985c.53 1.512.971 3.054 1.32 4.618l.167.784-1.47.298c-.307-1.513-.702-3.007-1.184-4.473l-.248-.73 1.415-.497zm-5.13-9.967c.924 1.312 1.768 2.676 2.529 4.084l.374.708-1.334.687c-.706-1.37-1.493-2.7-2.357-3.98l-.438-.636 1.226-.863zm-6.405-8.95l3.202 4.473-1.22.873-3.202-4.472 1.22-.873zm-6.403-8.944l3.201 4.473-1.22.873-3.201-4.472 1.22-.874zm-6.404-8.944l3.202 4.472-1.22.874-3.201-4.473 1.22-.873zm-6.403-8.944l3.202 4.472-1.22.873-3.202-4.472 1.22-.873zm-6.403-8.944l3.201 4.472-1.22.873-3.2-4.472 1.219-.873zm-6.404-8.944l3.202 4.472-1.22.873-3.201-4.472 1.22-.873zm-6.994-8.688c1.145 1.118 2.224 2.303 3.232 3.551l.499.63-1.186.92c-.948-1.223-1.965-2.386-3.047-3.484l-.546-.543 1.048-1.074zm-8.986-6.631c1.407.765 2.769 1.614 4.076 2.54l.65.47-.891 1.206c-1.242-.917-2.537-1.76-3.878-2.523l-.674-.376.717-1.317zM351.75 646v4.25h4.75v1.5h-4.75V656h-1.5v-10h1.5zm153.36 5.254c1.565.354 3.106.8 4.615 1.335l.752.275-.528 1.404c-1.444-.544-2.92-1.002-4.418-1.373l-.751-.178.33-1.463zm-8.993-1.004c.863 0 1.725.027 2.585.082l.858.063-.126 1.495c-.827-.07-1.655-.114-2.486-.131l-.831-.009H494v-1.5h2.117zm-7.617 0v1.5H483v-1.5h5.5zm-11 0v1.5H472v-1.5h5.5zm-11 0v1.5H461v-1.5h5.5zm-11 0v1.5H450v-1.5h5.5zm-11 0v1.5H439v-1.5h5.5zm-11 0v1.5H428v-1.5h5.5zm-11 0v1.5H417v-1.5h5.5zm-11 0v1.5H406v-1.5h5.5zm-11 0v1.5H395v-1.5h5.5zm-11 0v1.5H384v-1.5h5.5zm-11 0v1.5H373v-1.5h5.5zm-11 0v1.5H362v-1.5h5.5z"/>
        </g>
    </g>
</svg>
