<svg xmlns="http://www.w3.org/2000/svg" width="904" height="458" viewBox="0 0 904 458">
    <defs>
        <linearGradient id="hrgy29la1a" x1="50%" x2="50%" y1="78.466%" y2="100%">
            <stop offset="0%" stop-color="#7D4FF6" stop-opacity=".2"/>
            <stop offset="100%" stop-color="#7D4FF6" stop-opacity="0"/>
        </linearGradient>
    </defs>
    <g fill="none" fill-rule="evenodd" opacity=".7">
        <g fill="url(#hrgy29la1a)" fill-rule="nonzero" transform="translate(-352 -315)">
            <path d="M346.54 771.67v2h-.213v-2h.212zm11 0v2h-5.5v-2h5.5zm11 0v2h-5.5v-2h5.5zm11 0v2h-5.5v-2h5.5zm11 0v2h-5.5v-2h5.5zm11 0v2h-5.5v-2h5.5zm11 0v2h-5.5v-2h5.5zm11 0v2h-5.5v-2h5.5zm11 0v2h-5.5v-2h5.5zm11 0v2h-5.5v-2h5.5zm11 0v2h-5.5v-2h5.5zm11 0v2h-5.5v-2h5.5zm11 0v2h-5.5v-2h5.5zm11 0v2h-5.5v-2h5.5zm11 0v2h-5.5v-2h5.5zm11 0v2h-5.5v-2h5.5zm11 0v2h-5.5v-2h5.5zm11 0v2h-5.5v-2h5.5zm11 0v2h-5.5v-2h5.5zm11 0v2h-5.5v-2h5.5zm11 0v2h-5.5v-2h5.5zm10.95-.076l.125 1.996c-.567.036-1.135.06-1.704.071l-.854.01h-3.018v-2h3.018c.812 0 1.624-.026 2.433-.077zm10.468-2.124l.663 1.887c-1.521.534-3.073.978-4.647 1.33l-.789.167-.397-1.96c1.755-.355 3.482-.831 5.17-1.424zm9.536-4.91l1.151 1.636c-1.32.929-2.691 1.778-4.11 2.545l-.712.376-.916-1.778c1.59-.82 3.123-1.748 4.587-2.778zm7.847-7.325l1.534 1.283-.381.456c-.899 1.074-1.85 2.1-2.85 3.074l-.607.578-1.365-1.46c.97-.907 1.894-1.864 2.769-2.867l.519-.608.38-.456zm7.057-8.438l1.534 1.283-3.529 4.22-1.534-1.284 3.529-4.219zm7.057-8.438l1.534 1.283-3.529 4.22-1.534-1.284 3.529-4.219zm7.057-8.438l1.534 1.283-3.529 4.22-1.534-1.284 3.529-4.219zm7.057-8.438l1.534 1.283-3.529 4.22-1.534-1.284 3.529-4.219zm5.768-9.016l1.817.837c-.675 1.464-1.435 2.887-2.277 4.262l-.429.684-1.684-1.078c.965-1.508 1.825-3.08 2.573-4.705zm3.105-10.258l1.976.31c-.251 1.594-.596 3.171-1.032 4.723l-.225.773-1.915-.579c.518-1.712.918-3.458 1.196-5.227zm2.473-10.825v4.764l-.001.377-.005.377-2-.036.005-.359.001-.359v-4.764h2zm0-11v5.5h-2v-5.5h2zm0-11v5.5h-2v-5.5h2zm0-11v5.5h-2v-5.5h2zm0-11v5.5h-2v-5.5h2zm0-11v5.5h-2v-5.5h2zm0-11v5.5h-2v-5.5h2zm0-11v5.5h-2v-5.5h2zm0-11v5.5h-2v-5.5h2zm0-11v5.5h-2v-5.5h2zm0-11v5.5h-2v-5.5h2zm0-11v5.5h-2v-5.5h2zm0-11v5.5h-2v-5.5h2zm0-11v5.5h-2v-5.5h2zm0-11v5.5h-2v-5.5h2zm0-11v5.5h-2v-5.5h2zm0-11v5.5h-2v-5.5h2zm0-11v5.5h-2v-5.5h2zm0-11v5.5h-2v-5.5h2zm0-11v5.5h-2v-5.5h2zm0-11v5.5h-2v-5.5h2zm-1.604-11.083l1.98.277c-.212 1.517-.335 3.047-.367 4.582l-.008.768-2-.003c.002-1.884.134-3.763.395-5.624zm3.095-10.875l1.83.808c-.62 1.403-1.156 2.842-1.605 4.308l-.218.735-1.923-.549c.516-1.81 1.156-3.58 1.916-5.302zm5.916-9.577l1.54 1.275c-.978 1.183-1.885 2.422-2.716 3.71l-.41.648-1.7-1.051c.987-1.6 2.085-3.13 3.286-4.582zm7.554-8.088l1.45 1.378-3.79 3.986-1.45-1.378 3.79-3.986zm7.58-7.972l1.45 1.378-3.79 3.986-1.45-1.378 3.79-3.986zm7.58-7.972l1.449 1.378-3.79 3.986-1.45-1.378 3.79-3.986zm7.579-7.972l1.45 1.378-3.79 3.986-1.45-1.378 3.79-3.986zm7.694-7.967l1.357 1.47c-.412.38-.816.77-1.211 1.167l-.587.604-2.014 2.118-1.45-1.378 2.015-2.118c.61-.642 1.24-1.263 1.89-1.863zm9.224-6.42l.907 1.782c-1.367.695-2.691 1.47-3.967 2.322l-.634.432-1.143-1.641c1.545-1.076 3.16-2.043 4.837-2.896zm10.652-3.682l.387 1.962c-1.505.297-2.991.683-4.45 1.155l-.727.243-.653-1.89c1.778-.615 3.596-1.106 5.443-1.47zm11.158-.776v2h-3.219c-.495 0-.99.01-1.483.028l-.74.035-.115-1.996c.519-.03 1.038-.05 1.558-.06l.78-.007h3.219zm143 0v2h-5.5v-2h5.5zm-132 0v2h-5.5v-2h5.5zm11 0v2h-5.5v-2h5.5zm11 0v2h-5.5v-2h5.5zm11 0v2h-5.5v-2h5.5zm11 0v2h-5.5v-2h5.5zm11 0v2h-5.5v-2h5.5zm11 0v2h-5.5v-2h5.5zm11 0v2h-5.5v-2h5.5zm11 0v2h-5.5v-2h5.5zm11 0v2h-5.5v-2h5.5zm11 0v2h-5.5v-2h5.5zm11 0v2h-5.5v-2h5.5zm22 0v2h-5.5v-2h5.5zm11 0v2h-5.5v-2h5.5zm11 0v2h-5.5v-2h5.5zm11 0v2h-5.5v-2h5.5zm11 0v2h-5.5v-2h5.5zm11 0v2h-5.5v-2h5.5zm11 0v2h-5.5v-2h5.5zm11 0v2h-5.5v-2h5.5zm11 0v2h-5.5v-2h5.5zm10.86-.426l.296 1.978c-1.592.237-3.199.38-4.813.43l-.807.016-.02-2c1.792-.019 3.578-.16 5.345-.424zm10.26-3.012l.822 1.823c-1.47.662-2.978 1.237-4.516 1.721l-.771.235-.563-1.92c1.717-.503 3.397-1.125 5.029-1.86zm9.076-5.702l1.287 1.532c-1.236 1.038-2.53 2-3.877 2.885l-.678.435-1.064-1.693c1.514-.952 2.961-2.007 4.332-3.159zm7.409-7.888l1.527 1.292-2.723 3.218-.43.5-.436.492-1.485-1.34.416-.469.408-.475 2.723-3.218zm7.105-8.398l1.527 1.292-3.553 4.2-1.527-1.293 3.553-4.199zm7.105-8.397l1.527 1.292-3.553 4.198-1.527-1.291 3.553-4.2zm7.105-8.398l1.526 1.292-3.552 4.199-1.527-1.292 3.553-4.199zm7.105-8.398l1.526 1.292-3.552 4.2-1.527-1.293 3.553-4.199zm7.445-8.287l1.359 1.467c-1.057.98-2.065 2.012-3.021 3.096l-.567.655-.137.162-1.527-1.291.137-.163c1.174-1.386 2.428-2.696 3.756-3.926zm9.11-6.536l.954 1.758c-1.313.713-2.588 1.494-3.82 2.34l-.734.515-1.166-1.625c1.525-1.095 3.117-2.092 4.766-2.988zm207.648-10.25l2 .003-.013 12-2-.003.005-5-4.5-.005.003-2 4.499.005.006-5zm-197.169 6.16l.489 1.94c-1.45.365-2.88.805-4.282 1.319l-.838.317-.727-1.863c1.748-.682 3.538-1.254 5.358-1.713zm11.164-1.363l-.003 2h-.12c-1.465-.002-2.926.071-4.378.218l-.87.097-.242-1.985c1.515-.185 3.041-.292 4.572-.322l.92-.008h.12zm170.5.186l5.5.006-.003 2-5.5-.006.003-2zm-11-.012l5.5.006-.003 2-5.5-.006.003-2zm-11-.012l5.5.006-.003 2-5.5-.006.003-2zm-11-.012l5.5.006-.003 2-5.5-.006.003-2zm-11-.012l5.5.006-.003 2-5.5-.006.003-2zm-11-.012l5.5.006-.003 2-5.5-.006.003-2zm-11-.012l5.5.006-.003 2-5.5-.006.003-2zm-11-.012l5.5.006-.003 2-5.5-.006.003-2zm-11-.012l5.5.006-.003 2-5.5-.006.003-2zm-11-.012l5.5.006-.003 2-5.5-.006.003-2zm-11-.012l5.5.006-.003 2-5.5-.006.003-2zm-11-.012l5.5.006-.003 2-5.5-.006.003-2zm-11-.012l5.5.006-.003 2-5.5-.006.003-2zm-11-.012l5.5.006-.003 2-5.5-.006.003-2zm-11-.012l5.5.006-.003 2-5.5-.006.003-2zm-11-.012l5.5.006-.003 2-5.5-.006.003-2z"/>
        </g>
    </g>
</svg>
