<svg xmlns="http://www.w3.org/2000/svg" width="295" height="70" viewBox="0 0 295 70">
    <g fill="none" fill-rule="evenodd">
        <g fill="#DCD8E7" fill-rule="nonzero">
            <path d="M1010.375 1625.809v4.249h4.766v1.5h-4.766v4.25h-1.5v-10h1.5zm92.766 4.25v1.5h-5.5v-1.5h5.5zm-11 0v1.5h-5.5v-1.5h5.5zm-11 0v1.5h-5.5v-1.5h5.5zm-11 0v1.5h-5.5v-1.5h5.5zm-11 0v1.5h-5.5v-1.5h5.5zm-11 0v1.5h-5.5v-1.5h5.5zm-11 0v1.5h-5.5v-1.5h5.5zm-11 0v1.5h-5.5v-1.5h5.5zm87.715-1.126l.357 1.457c-1.556.38-3.133.67-4.725.865l-.796.09-.154-1.492c1.793-.185 3.57-.492 5.318-.92zm10.03-3.984l.74 1.305c-1.393.79-2.833 1.498-4.31 2.12l-.741.302-.554-1.394c1.673-.665 3.299-1.444 4.866-2.333zm8.576-6.567l1.05 1.072-.466.457c-.982.962-2.01 1.873-3.081 2.729l-.648.507-.913-1.19c1.048-.804 2.056-1.66 3.02-2.567l.572-.55.466-.458zm7.856-7.7l1.05 1.072-3.928 3.85-1.05-1.072 3.928-3.85zm7.856-7.7l1.05 1.072-3.928 3.85-1.05-1.071 3.928-3.85zm7.856-7.699l1.05 1.071-3.928 3.85-1.05-1.071 3.928-3.85zm7.855-7.7l1.05 1.071-3.928 3.85-1.05-1.07 3.928-3.85zm8.087-7.593l.928 1.179c-.885.697-1.74 1.432-2.562 2.204l-.612.585-.863.847-1.05-1.072.864-.846c1.047-1.025 2.147-1.992 3.295-2.897zm9.645-5.647l.573 1.386c-1.426.59-2.817 1.263-4.164 2.017l-.67.384-.758-1.295c1.614-.945 3.291-1.778 5.019-2.492zm114.913-8.093c3.176 0 5.75 2.574 5.75 5.75s-2.574 5.75-5.75 5.75c-2.921 0-5.334-2.179-5.701-5h-4.799v-1.5h4.798c.368-2.821 2.78-5 5.702-5zm0 1.5c-2.347 0-4.25 1.903-4.25 4.25s1.903 4.25 4.25 4.25 4.25-1.903 4.25-4.25-1.903-4.25-4.25-4.25zm-104.079 3.776l.175 1.49c-1.535.18-3.056.45-4.557.808l-.748.187-.378-1.452c1.81-.47 3.65-.815 5.508-1.033zm88.079-.276v1.5h-5.5v-1.5h5.5zm-11 0v1.5h-5.5v-1.5h5.5zm-11 0v1.5h-5.5v-1.5h5.5zm-11 0v1.5h-5.5v-1.5h5.5zm-11 0v1.5h-5.5v-1.5h5.5zm-11 0v1.5h-5.5v-1.5h5.5zm-11 0v1.5h-5.5v-1.5h5.5zm-11 0v1.5h-5.5v-1.5h5.5z" transform="translate(-1008 -1566)"/>
        </g>
    </g>
</svg>
