<svg xmlns="http://www.w3.org/2000/svg" width="72" height="170" viewBox="0 0 72 170">
    <g fill="none" fill-rule="evenodd" opacity=".5">
        <g fill="#7D4FF6" fill-rule="nonzero">
            <path d="M669.02 937.25c3.176 0 5.75 2.574 5.75 5.75s-2.574 5.75-5.75 5.75-5.75-2.574-5.75-5.75 2.574-5.75 5.75-5.75zm0 1.5c-2.347 0-4.25 1.903-4.25 4.25s1.903 4.25 4.25 4.25 4.25-1.903 4.25-4.25-1.903-4.25-4.25-4.25zm.75-7.873v5.5h-1.5v-5.5h1.5zm0-11v5.5h-1.5v-5.5h1.5zm0-11v5.5h-1.5v-5.5h1.5zm-1.081-11.145c.366 1.558.64 3.137.821 4.731l.083.798-1.493.14c-.144-1.54-.379-3.067-.702-4.574l-.17-.752 1.46-.343zm-4.023-10.42c.776 1.401 1.47 2.847 2.076 4.33l.296.745-1.4.54c-.556-1.44-1.196-2.846-1.917-4.21l-.368-.679 1.313-.727zm-6.725-8.962c1.13 1.138 2.19 2.34 3.177 3.602l.487.636-1.2.9c-.926-1.233-1.924-2.411-2.99-3.528l-.539-.554 1.065-1.056zm-8.806-6.83l2.225 1.458c.606.398 1.2.81 1.783 1.238l.58.433-.91 1.193c-.554-.422-1.119-.829-1.695-1.221l-.58-.388-2.226-1.459.823-1.254zm-9.2-6.031l4.6 3.015-.822 1.255-4.6-3.016.822-1.254zm-9.2-6.03l4.6 3.015-.822 1.254-4.6-3.015.823-1.255zm-8.883-6.343c1.148 1.027 2.359 1.986 3.625 2.873l.638.437-.837 1.245c-1.334-.895-2.61-1.867-3.824-2.909l-.602-.527 1-1.119zm-6.958-8.187c.83 1.302 1.734 2.554 2.71 3.75l.495.592-1.143.972c-1.038-1.221-2.003-2.503-2.89-3.837l-.437-.671 1.265-.806zm-4.492-9.817c.443 1.48.973 2.931 1.587 4.347l.314.705-1.364.623c-.666-1.457-1.246-2.952-1.736-4.478l-.238-.766 1.437-.43zm-1.647-10.671c.023 1.547.138 3.088.342 4.615l.11.762-1.483.229c-.243-1.581-.393-3.177-.45-4.78l-.02-.803 1.5-.023zm-.005-10.99v5.5h-1.5v-5.5h1.5zm0-11v5.5h-1.5v-5.5h1.5zm0-11v5.5h-1.5v-5.5h1.5zm4.25-11.75v1.5h-4.25v4.75h-1.5v-4.75H603v-1.5h10z" transform="translate(-603 -779)"/>
        </g>
    </g>
</svg>
