<svg xmlns="http://www.w3.org/2000/svg" width="184" height="184" viewBox="0 0 184 184">
    <defs>
        <filter id="cnjwgk5yra">
            <feColorMatrix in="SourceGraphic" values="0 0 0 0 0.862745 0 0 0 0 0.847059 0 0 0 0 0.905882 0 0 0 1.000000 0"/>
        </filter>
    </defs>
    <g fill="none" fill-rule="evenodd" opacity=".3">
        <g filter="url(#cnjwgk5yra)" transform="translate(-1360 -1342)">
            <g fill="#F0EEF6" transform="rotate(-45 2410.9 -924.703)">
                <rect width="4" height="4" rx="1"/>
                <rect width="4" height="4" x="56" rx="1"/>
                <rect width="4" height="4" x="28" rx="1"/>
                <rect width="4" height="4" x="84" rx="1"/>
                <rect width="4" height="4" x="112" rx="1"/>
                <rect width="4" height="4" x="14" rx="1"/>
                <rect width="4" height="4" x="70" rx="1"/>
                <rect width="4" height="4" x="42" rx="1"/>
                <rect width="4" height="4" x="98" rx="1"/>
                <rect width="4" height="4" x="126" rx="1"/>
                <rect width="4" height="4" y="14" rx="1"/>
                <rect width="4" height="4" x="56" y="14" rx="1"/>
                <rect width="4" height="4" x="28" y="14" rx="1"/>
                <rect width="4" height="4" x="84" y="14" rx="1"/>
                <rect width="4" height="4" x="112" y="14" rx="1"/>
                <rect width="4" height="4" x="14" y="14" rx="1"/>
                <rect width="4" height="4" x="70" y="14" rx="1"/>
                <rect width="4" height="4" x="42" y="14" rx="1"/>
                <rect width="4" height="4" x="98" y="14" rx="1"/>
                <rect width="4" height="4" x="126" y="14" rx="1"/>
                <rect width="4" height="4" y="28" rx="1"/>
                <rect width="4" height="4" x="56" y="28" rx="1"/>
                <rect width="4" height="4" x="28" y="28" rx="1"/>
                <rect width="4" height="4" x="84" y="28" rx="1"/>
                <rect width="4" height="4" x="112" y="28" rx="1"/>
                <rect width="4" height="4" x="14" y="28" rx="1"/>
                <rect width="4" height="4" x="70" y="28" rx="1"/>
                <rect width="4" height="4" x="42" y="28" rx="1"/>
                <rect width="4" height="4" x="98" y="28" rx="1"/>
                <rect width="4" height="4" x="126" y="28" rx="1"/>
                <rect width="4" height="4" y="42" rx="1"/>
                <rect width="4" height="4" x="56" y="42" rx="1"/>
                <rect width="4" height="4" x="28" y="42" rx="1"/>
                <rect width="4" height="4" x="84" y="42" rx="1"/>
                <rect width="4" height="4" x="112" y="42" rx="1"/>
                <rect width="4" height="4" x="14" y="42" rx="1"/>
                <rect width="4" height="4" x="70" y="42" rx="1"/>
                <rect width="4" height="4" x="42" y="42" rx="1"/>
                <rect width="4" height="4" x="98" y="42" rx="1"/>
                <rect width="4" height="4" x="126" y="42" rx="1"/>
                <rect width="4" height="4" y="56" rx="1"/>
                <rect width="4" height="4" x="56" y="56" rx="1"/>
                <rect width="4" height="4" x="28" y="56" rx="1"/>
                <rect width="4" height="4" x="84" y="56" rx="1"/>
                <rect width="4" height="4" x="112" y="56" rx="1"/>
                <rect width="4" height="4" x="14" y="56" rx="1"/>
                <rect width="4" height="4" x="70" y="56" rx="1"/>
                <rect width="4" height="4" x="42" y="56" rx="1"/>
                <rect width="4" height="4" x="98" y="56" rx="1"/>
                <rect width="4" height="4" x="126" y="56" rx="1"/>
                <rect width="4" height="4" y="70" rx="1"/>
                <rect width="4" height="4" x="56" y="70" rx="1"/>
                <rect width="4" height="4" x="28" y="70" rx="1"/>
                <rect width="4" height="4" x="84" y="70" rx="1"/>
                <rect width="4" height="4" x="112" y="70" rx="1"/>
                <rect width="4" height="4" x="14" y="70" rx="1"/>
                <rect width="4" height="4" x="70" y="70" rx="1"/>
                <rect width="4" height="4" x="42" y="70" rx="1"/>
                <rect width="4" height="4" x="98" y="70" rx="1"/>
                <rect width="4" height="4" x="126" y="70" rx="1"/>
                <rect width="4" height="4" y="84" rx="1"/>
                <rect width="4" height="4" x="56" y="84" rx="1"/>
                <rect width="4" height="4" x="28" y="84" rx="1"/>
                <rect width="4" height="4" x="84" y="84" rx="1"/>
                <rect width="4" height="4" x="112" y="84" rx="1"/>
                <rect width="4" height="4" x="14" y="84" rx="1"/>
                <rect width="4" height="4" x="70" y="84" rx="1"/>
                <rect width="4" height="4" x="42" y="84" rx="1"/>
                <rect width="4" height="4" x="98" y="84" rx="1"/>
                <rect width="4" height="4" x="126" y="84" rx="1"/>
                <rect width="4" height="4" y="98" rx="1"/>
                <rect width="4" height="4" x="56" y="98" rx="1"/>
                <rect width="4" height="4" x="28" y="98" rx="1"/>
                <rect width="4" height="4" x="84" y="98" rx="1"/>
                <rect width="4" height="4" x="112" y="98" rx="1"/>
                <rect width="4" height="4" x="14" y="98" rx="1"/>
                <rect width="4" height="4" x="70" y="98" rx="1"/>
                <rect width="4" height="4" x="42" y="98" rx="1"/>
                <rect width="4" height="4" x="98" y="98" rx="1"/>
                <rect width="4" height="4" x="126" y="98" rx="1"/>
                <rect width="4" height="4" x="56" y="112" rx="1"/>
                <rect width="4" height="4" x="28" y="112" rx="1"/>
                <rect width="4" height="4" x="84" y="112" rx="1"/>
                <rect width="4" height="4" x="112" y="112" rx="1"/>
                <rect width="4" height="4" x="14" y="112" rx="1"/>
                <rect width="4" height="4" x="70" y="112" rx="1"/>
                <rect width="4" height="4" x="42" y="112" rx="1"/>
                <rect width="4" height="4" x="98" y="112" rx="1"/>
                <rect width="4" height="4" x="126" y="112" rx="1"/>
                <rect width="4" height="4" x="56" y="126" rx="1"/>
                <rect width="4" height="4" x="84" y="126" rx="1"/>
                <rect width="4" height="4" x="112" y="126" rx="1"/>
                <rect width="4" height="4" x="70" y="126" rx="1"/>
                <rect width="4" height="4" x="42" y="126" rx="1"/>
                <rect width="4" height="4" x="98" y="126" rx="1"/>
                <rect width="4" height="4" x="126" y="126" rx="1"/>
            </g>
        </g>
    </g>
</svg>
