<svg xmlns="http://www.w3.org/2000/svg" width="130" height="102" viewBox="0 0 130 102">
    <defs>
        <filter id="k4tmfjfxha">
            <feColorMatrix in="SourceGraphic" values="0 0 0 0 0.862745 0 0 0 0 0.847059 0 0 0 0 0.905882 0 0 0 1.000000 0"/>
        </filter>
    </defs>
    <g fill="none" fill-rule="evenodd" opacity=".7">
        <g filter="url(#k4tmfjfxha)" transform="translate(-1448 -1612)">
            <g fill="#F0EEF6" transform="translate(1448 1612)">
                <rect width="3.976" height="3.976" rx=".994"/>
                <rect width="3.976" height="3.976" x="55.671" rx=".994"/>
                <rect width="3.976" height="3.976" x="27.835" rx=".994"/>
                <rect width="3.976" height="3.976" x="83.506" rx=".994"/>
                <rect width="3.976" height="3.976" x="111.341" rx=".994"/>
                <rect width="3.976" height="3.976" x="13.918" rx=".994"/>
                <rect width="3.976" height="3.976" x="69.588" rx=".994"/>
                <rect width="3.976" height="3.976" x="41.753" rx=".994"/>
                <rect width="3.976" height="3.976" x="97.424" rx=".994"/>
                <rect width="3.976" height="3.976" x="125.259" rx=".994"/>
                <rect width="3.976" height="3.976" y="13.918" rx=".994"/>
                <rect width="3.976" height="3.976" x="55.671" y="13.918" rx=".994"/>
                <rect width="3.976" height="3.976" x="27.835" y="13.918" rx=".994"/>
                <rect width="3.976" height="3.976" x="83.506" y="13.918" rx=".994"/>
                <rect width="3.976" height="3.976" x="111.341" y="13.918" rx=".994"/>
                <rect width="3.976" height="3.976" x="13.918" y="13.918" rx=".994"/>
                <rect width="3.976" height="3.976" x="69.588" y="13.918" rx=".994"/>
                <rect width="3.976" height="3.976" x="41.753" y="13.918" rx=".994"/>
                <rect width="3.976" height="3.976" x="97.424" y="13.918" rx=".994"/>
                <rect width="3.976" height="3.976" x="125.259" y="13.918" rx=".994"/>
                <rect width="3.976" height="3.976" y="27.835" rx=".994"/>
                <rect width="3.976" height="3.976" x="55.671" y="27.835" rx=".994"/>
                <rect width="3.976" height="3.976" x="27.835" y="27.835" rx=".994"/>
                <rect width="3.976" height="3.976" x="83.506" y="27.835" rx=".994"/>
                <rect width="3.976" height="3.976" x="111.341" y="27.835" rx=".994"/>
                <rect width="3.976" height="3.976" x="13.918" y="27.835" rx=".994"/>
                <rect width="3.976" height="3.976" x="69.588" y="27.835" rx=".994"/>
                <rect width="3.976" height="3.976" x="41.753" y="27.835" rx=".994"/>
                <rect width="3.976" height="3.976" x="97.424" y="27.835" rx=".994"/>
                <rect width="3.976" height="3.976" x="125.259" y="27.835" rx=".994"/>
                <rect width="3.976" height="3.976" y="41.753" rx=".994"/>
                <rect width="3.976" height="3.976" x="55.671" y="41.753" rx=".994"/>
                <rect width="3.976" height="3.976" x="27.835" y="41.753" rx=".994"/>
                <rect width="3.976" height="3.976" x="83.506" y="41.753" rx=".994"/>
                <rect width="3.976" height="3.976" x="111.341" y="41.753" rx=".994"/>
                <rect width="3.976" height="3.976" x="13.918" y="41.753" rx=".994"/>
                <rect width="3.976" height="3.976" x="69.588" y="41.753" rx=".994"/>
                <rect width="3.976" height="3.976" x="41.753" y="41.753" rx=".994"/>
                <rect width="3.976" height="3.976" x="97.424" y="41.753" rx=".994"/>
                <rect width="3.976" height="3.976" x="125.259" y="41.753" rx=".994"/>
                <rect width="3.976" height="3.976" y="55.671" rx=".994"/>
                <rect width="3.976" height="3.976" x="55.671" y="55.671" rx=".994"/>
                <rect width="3.976" height="3.976" x="27.835" y="55.671" rx=".994"/>
                <rect width="3.976" height="3.976" x="83.506" y="55.671" rx=".994"/>
                <rect width="3.976" height="3.976" x="111.341" y="55.671" rx=".994"/>
                <rect width="3.976" height="3.976" x="13.918" y="55.671" rx=".994"/>
                <rect width="3.976" height="3.976" x="69.588" y="55.671" rx=".994"/>
                <rect width="3.976" height="3.976" x="41.753" y="55.671" rx=".994"/>
                <rect width="3.976" height="3.976" x="97.424" y="55.671" rx=".994"/>
                <rect width="3.976" height="3.976" x="125.259" y="55.671" rx=".994"/>
                <rect width="3.976" height="3.976" y="69.588" rx=".994"/>
                <rect width="3.976" height="3.976" x="55.671" y="69.588" rx=".994"/>
                <rect width="3.976" height="3.976" x="27.835" y="69.588" rx=".994"/>
                <rect width="3.976" height="3.976" x="83.506" y="69.588" rx=".994"/>
                <rect width="3.976" height="3.976" x="111.341" y="69.588" rx=".994"/>
                <rect width="3.976" height="3.976" x="13.918" y="69.588" rx=".994"/>
                <rect width="3.976" height="3.976" x="69.588" y="69.588" rx=".994"/>
                <rect width="3.976" height="3.976" x="41.753" y="69.588" rx=".994"/>
                <rect width="3.976" height="3.976" x="97.424" y="69.588" rx=".994"/>
                <rect width="3.976" height="3.976" x="125.259" y="69.588" rx=".994"/>
                <rect width="3.976" height="3.976" y="83.506" rx=".994"/>
                <rect width="3.976" height="3.976" x="13.918" y="83.506" rx=".994"/>
                <rect width="3.976" height="3.976" y="97.424" rx=".994"/>
                <rect width="3.976" height="3.976" x="13.918" y="97.424" rx=".994"/>
            </g>
        </g>
    </g>
</svg>
