<svg xmlns="http://www.w3.org/2000/svg" width="344" height="162" viewBox="0 0 344 162">
    <g fill="none" fill-opacity=".2" fill-rule="evenodd" opacity=".5">
        <g fill="#7D4FF6" fill-rule="nonzero">
            <g>
                <path d="M739.95 394.652v12h-2v-12h2zm-2.94 5v2h-5.5v-2h5.5zm-11 0v2h-5.5v-2h5.5zm-11 0v2h-5.5v-2h5.5zm-16.426-.138c.814.069 1.63.112 2.447.129l.818.009h2.161v2h-2.161c-.86 0-1.72-.028-2.577-.082l-.856-.063.168-1.993zm-10.433-2.352c1.436.54 2.902.994 4.392 1.36l.746.176-.44 1.951c-1.573-.354-3.124-.801-4.644-1.338l-.757-.276.703-1.873zm-9.42-5.11c1.236.91 2.523 1.746 3.856 2.504l.67.372-.954 1.758c-1.417-.77-2.787-1.621-4.104-2.552l-.654-.472 1.186-1.61zm-7.972-7.349l3.526 3.526.177.176.179.176-1.396 1.432-.188-.184-.186-.186-3.526-3.526 1.414-1.414zm-7.778-7.778l3.889 3.889-1.414 1.414-3.89-3.889 1.415-1.414zm-7.779-7.778l3.89 3.889-1.415 1.414-3.889-3.89 1.414-1.413zm-7.778-7.778l3.89 3.889-1.415 1.414-3.889-3.89 1.414-1.413zm-7.778-7.779l3.89 3.89-1.415 1.414-3.89-3.89 1.415-1.414zm-7.778-7.778l3.889 3.89-1.414 1.413-3.89-3.889 1.415-1.414zm-7.778-7.778l3.889 3.89-1.414 1.413-3.89-3.889 1.415-1.414zm-7.778-7.778l3.889 3.889-1.415 1.414-3.889-3.889 1.415-1.414zm-7.779-7.778l3.89 3.889-1.415 1.414-3.889-3.89 1.414-1.413zm-7.778-7.779l3.89 3.89-1.415 1.414-3.889-3.89 1.414-1.414zm-7.778-7.778l3.89 3.89-1.415 1.414-3.89-3.89 1.415-1.414zm-7.778-7.778l3.889 3.89-1.414 1.413-3.89-3.889 1.415-1.414zm-7.778-7.778l3.889 3.89-1.414 1.413-3.89-3.889 1.415-1.414zm-7.778-7.778l3.889 3.889-1.415 1.414-3.889-3.889 1.415-1.414zm-7.779-7.778l3.89 3.889-1.415 1.414-3.889-3.89 1.414-1.413zm-7.778-7.779l3.89 3.89-1.415 1.414-3.889-3.89 1.414-1.414zm-7.778-7.778l3.89 3.89-1.415 1.414-3.89-3.89 1.415-1.414zm-8.232-7.492c1.305.943 2.555 1.963 3.744 3.055l.588.552-1.382 1.446c-1.11-1.062-2.28-2.056-3.505-2.977l-.616-.454 1.17-1.622zm-9.972-5.284c1.515.551 2.996 1.192 4.436 1.918l.716.37-.936 1.768c-1.356-.718-2.752-1.355-4.183-1.908l-.718-.27.685-1.878zm-11.007-2.364c1.61.119 3.21.332 4.79.64l.79.16-.42 1.956c-1.498-.321-3.015-.555-4.543-.698l-.765-.064.148-1.994zm-5.571-.112v2h-5.5v-2h5.5zm-11 0v2h-5.5v-2h5.5zm-11 0v2h-5.5v-2h5.5zm-11 0v2h-5.5v-2h5.5zm-11 0v2h-5.5v-2h5.5zm-11 0v2h-5.5v-2h5.5zm-11 0v2h-5.5v-2h5.5zm-11 0v2h-5.5v-2h5.5zm-11 0v2h-5.5v-2h5.5zm-11 0v2h-5.5v-2h5.5zm-11 0v2h-5.5v-2h5.5z" transform="translate(-396 -245)"/>
            </g>
        </g>
    </g>
</svg>
