<svg xmlns="http://www.w3.org/2000/svg" width="30" height="30" viewBox="0 0 30 30">
    <defs>
        <filter id="vn20zc61aa">
            <feColorMatrix in="SourceGraphic" values="0 0 0 0 1.000000 0 0 0 0 1.000000 0 0 0 0 1.000000 0 0 0 1.000000 0"/>
        </filter>
    </defs>
    <g fill="none" fill-rule="evenodd">
        <g>
            <g>
                <g>
                    <g filter="url(#vn20zc61aa)" transform="translate(-1569 -4465) translate(0 4315) translate(547 150) translate(1022)">
                        <path fill="#000" fill-rule="nonzero" d="M26 0c2.21 0 4 1.79 4 4v22c0 2.21-1.79 4-4 4H4c-2.21 0-4-1.79-4-4V4c0-2.21 1.79-4 4-4h22zm-6.529 7.5c-2.648 0-4.597 2.471-3.998 5.037-3.41-.17-6.434-1.805-8.458-4.287-1.074 1.845-.556 4.258 1.27 5.479-.671-.021-1.305-.206-1.857-.514-.044 1.901 1.317 3.679 3.29 4.075-.575.156-1.208.193-1.852.07.521 1.63 2.037 2.816 3.833 2.85-1.725 1.351-3.898 1.955-6.075 1.699 1.816 1.165 3.972 1.844 6.29 1.844 7.62 0 11.923-6.436 11.662-12.207.804-.579 1.5-1.301 2.049-2.121-.735.326-1.526.546-2.356.646.846-.507 1.496-1.311 1.804-2.27-.794.47-1.673.812-2.608.995-.747-.798-1.815-1.296-2.994-1.296z"/>
                    </g>
                </g>
            </g>
        </g>
    </g>
</svg>