<svg xmlns="http://www.w3.org/2000/svg" width="30" height="30" viewBox="0 0 30 30">
    <defs>
        <filter id="1ux1wd3v9a">
            <feColorMatrix in="SourceGraphic" values="0 0 0 0 1.000000 0 0 0 0 1.000000 0 0 0 0 1.000000 0 0 0 1.000000 0"/>
        </filter>
    </defs>
    <g fill="none" fill-rule="evenodd">
        <g>
            <g>
                <g>
                    <g filter="url(#1ux1wd3v9a)" transform="translate(-1614 -4465) translate(0 4315) translate(547 150) translate(1022)">
                        <g>
                            <path fill="#000" fill-rule="nonzero" d="M26 0c2.21 0 4 1.79 4 4v22c0 2.21-1.79 4-4 4H4c-2.21 0-4-1.79-4-4V4c0-2.21 1.79-4 4-4h22zm-6 5h-3.174C13.83 5 12.5 6.319 12.5 8.846v2.404H10V15h2.5v10h3.75V15h3.453L20 11.25h-3.75V9.861c0-.796.576-1.111 1.345-1.111H20V5z" transform="translate(45)"/>
                        </g>
                    </g>
                </g>
            </g>
        </g>
    </g>
</svg>
