<svg xmlns="http://www.w3.org/2000/svg" width="360" height="360" viewBox="0 0 360 360">
    <defs>
        <filter id="uqs5gyjcva">
            <feColorMatrix in="SourceGraphic" values="0 0 0 0 0.862745 0 0 0 0 0.847059 0 0 0 0 0.905882 0 0 0 1.000000 0"/>
        </filter>
    </defs>
    <g fill="none" fill-rule="evenodd">
        <g>
            <g>
                <g transform="translate(-1688 -4073) translate(0 4144) translate(1688.608 -70.648)">
                    <rect width="253" height="253" x="52.619" y="52.651" fill="#FFF" opacity=".1" rx="20" transform="scale(-1 1) rotate(-45 0 611.584)"/>
                    <g filter="url(#uqs5gyjcva)" opacity=".3">
                        <g fill="#F0EEF6" transform="rotate(-45 127.542 30.094)">
                            <rect width="4" height="4" rx="1"/>
                            <rect width="4" height="4" x="56" rx="1"/>
                            <rect width="4" height="4" x="28" rx="1"/>
                            <rect width="4" height="4" x="84" rx="1"/>
                            <rect width="4" height="4" x="112" rx="1"/>
                            <rect width="4" height="4" x="14" rx="1"/>
                            <rect width="4" height="4" x="70" rx="1"/>
                            <rect width="4" height="4" x="42" rx="1"/>
                            <rect width="4" height="4" x="98" rx="1"/>
                            <rect width="4" height="4" x="126" rx="1"/>
                            <rect width="4" height="4" y="14" rx="1"/>
                            <rect width="4" height="4" x="56" y="14" rx="1"/>
                            <rect width="4" height="4" x="28" y="14" rx="1"/>
                            <rect width="4" height="4" x="84" y="14" rx="1"/>
                            <rect width="4" height="4" x="112" y="14" rx="1"/>
                            <rect width="4" height="4" x="14" y="14" rx="1"/>
                            <rect width="4" height="4" x="70" y="14" rx="1"/>
                            <rect width="4" height="4" x="42" y="14" rx="1"/>
                            <rect width="4" height="4" x="98" y="14" rx="1"/>
                            <rect width="4" height="4" x="126" y="14" rx="1"/>
                            <rect width="4" height="4" y="28" rx="1"/>
                            <rect width="4" height="4" x="56" y="28" rx="1"/>
                            <rect width="4" height="4" x="28" y="28" rx="1"/>
                            <rect width="4" height="4" x="84" y="28" rx="1"/>
                            <rect width="4" height="4" x="112" y="28" rx="1"/>
                            <rect width="4" height="4" x="14" y="28" rx="1"/>
                            <rect width="4" height="4" x="70" y="28" rx="1"/>
                            <rect width="4" height="4" x="42" y="28" rx="1"/>
                            <rect width="4" height="4" x="98" y="28" rx="1"/>
                            <rect width="4" height="4" x="126" y="28" rx="1"/>
                            <rect width="4" height="4" y="42" rx="1"/>
                            <rect width="4" height="4" x="56" y="42" rx="1"/>
                            <rect width="4" height="4" x="28" y="42" rx="1"/>
                            <rect width="4" height="4" x="84" y="42" rx="1"/>
                            <rect width="4" height="4" x="112" y="42" rx="1"/>
                            <rect width="4" height="4" x="14" y="42" rx="1"/>
                            <rect width="4" height="4" x="70" y="42" rx="1"/>
                            <rect width="4" height="4" x="42" y="42" rx="1"/>
                            <rect width="4" height="4" x="98" y="42" rx="1"/>
                            <rect width="4" height="4" x="126" y="42" rx="1"/>
                            <rect width="4" height="4" y="56" rx="1"/>
                            <rect width="4" height="4" x="56" y="56" rx="1"/>
                            <rect width="4" height="4" x="28" y="56" rx="1"/>
                            <rect width="4" height="4" x="84" y="56" rx="1"/>
                            <rect width="4" height="4" x="112" y="56" rx="1"/>
                            <rect width="4" height="4" x="14" y="56" rx="1"/>
                            <rect width="4" height="4" x="70" y="56" rx="1"/>
                            <rect width="4" height="4" x="42" y="56" rx="1"/>
                            <rect width="4" height="4" x="98" y="56" rx="1"/>
                            <rect width="4" height="4" x="126" y="56" rx="1"/>
                            <rect width="4" height="4" y="70" rx="1"/>
                            <rect width="4" height="4" x="56" y="70" rx="1"/>
                            <rect width="4" height="4" x="28" y="70" rx="1"/>
                            <rect width="4" height="4" x="84" y="70" rx="1"/>
                            <rect width="4" height="4" x="112" y="70" rx="1"/>
                            <rect width="4" height="4" x="14" y="70" rx="1"/>
                            <rect width="4" height="4" x="70" y="70" rx="1"/>
                            <rect width="4" height="4" x="42" y="70" rx="1"/>
                            <rect width="4" height="4" x="98" y="70" rx="1"/>
                            <rect width="4" height="4" x="126" y="70" rx="1"/>
                            <rect width="4" height="4" y="84" rx="1"/>
                            <rect width="4" height="4" x="56" y="84" rx="1"/>
                            <rect width="4" height="4" x="28" y="84" rx="1"/>
                            <rect width="4" height="4" x="84" y="84" rx="1"/>
                            <rect width="4" height="4" x="112" y="84" rx="1"/>
                            <rect width="4" height="4" x="14" y="84" rx="1"/>
                            <rect width="4" height="4" x="70" y="84" rx="1"/>
                            <rect width="4" height="4" x="42" y="84" rx="1"/>
                            <rect width="4" height="4" x="98" y="84" rx="1"/>
                            <rect width="4" height="4" x="126" y="84" rx="1"/>
                            <rect width="4" height="4" y="98" rx="1"/>
                            <rect width="4" height="4" x="56" y="98" rx="1"/>
                            <rect width="4" height="4" x="28" y="98" rx="1"/>
                            <rect width="4" height="4" x="84" y="98" rx="1"/>
                            <rect width="4" height="4" x="112" y="98" rx="1"/>
                            <rect width="4" height="4" x="14" y="98" rx="1"/>
                            <rect width="4" height="4" x="70" y="98" rx="1"/>
                            <rect width="4" height="4" x="42" y="98" rx="1"/>
                            <rect width="4" height="4" x="98" y="98" rx="1"/>
                            <rect width="4" height="4" x="126" y="98" rx="1"/>
                            <rect width="4" height="4" x="56" y="112" rx="1"/>
                            <rect width="4" height="4" x="28" y="112" rx="1"/>
                            <rect width="4" height="4" x="84" y="112" rx="1"/>
                            <rect width="4" height="4" x="112" y="112" rx="1"/>
                            <rect width="4" height="4" x="14" y="112" rx="1"/>
                            <rect width="4" height="4" x="70" y="112" rx="1"/>
                            <rect width="4" height="4" x="42" y="112" rx="1"/>
                            <rect width="4" height="4" x="98" y="112" rx="1"/>
                            <rect width="4" height="4" x="126" y="112" rx="1"/>
                            <rect width="4" height="4" x="56" y="126" rx="1"/>
                            <rect width="4" height="4" x="84" y="126" rx="1"/>
                            <rect width="4" height="4" x="112" y="126" rx="1"/>
                            <rect width="4" height="4" x="70" y="126" rx="1"/>
                            <rect width="4" height="4" x="42" y="126" rx="1"/>
                            <rect width="4" height="4" x="98" y="126" rx="1"/>
                            <rect width="4" height="4" x="126" y="126" rx="1"/>
                        </g>
                    </g>
                </g>
            </g>
        </g>
    </g>
</svg>
