<svg xmlns="http://www.w3.org/2000/svg" width="39" height="39" viewBox="0 0 39 39">
    <g fill="none" fill-rule="evenodd" opacity=".1">
        <g fill="#7D4FF6" fill-rule="nonzero">
            <g>
                <g>
                    <g>
                        <path d="M16.32.957c.707 0 1.289.54 1.355 1.23l.006.131-.001.972h.973c1.975 0 3.588 1.55 3.69 3.5l.005.195v9.335c0 5.445-4.069 9.94-9.332 10.61l-.002-.11c0 5.048 4.092 9.14 9.14 9.14 4.959 0 8.996-3.95 9.136-8.875l.003-.264v-4.627c-2.674-.618-4.667-3.013-4.667-5.874 0-3.33 2.7-6.029 6.029-6.029 3.329 0 6.028 2.7 6.028 6.029 0 2.861-1.994 5.257-4.667 5.874v4.627c0 6.551-5.311 11.862-11.862 11.862-6.451 0-11.699-5.149-11.859-11.56l-.003-.194C5.12 26.273 1.1 21.922.961 16.605l-.004-.285V6.985c0-1.974 1.55-3.587 3.499-3.69l.196-.004.972-.001v-.972c0-.752.61-1.361 1.361-1.361.708 0 1.29.54 1.355 1.23l.007.131v5.834c0 .752-.61 1.361-1.362 1.361-.707 0-1.289-.54-1.355-1.23l-.006-.13v-2.14h-.972c-.499 0-.91.375-.966.859l-.007.113v9.335c0 4.403 3.57 7.973 7.974 7.973 4.32 0 7.838-3.437 7.969-7.725l.004-.248V6.985c0-.498-.376-.91-.86-.965l-.113-.007h-.973v2.14c0 .75-.609 1.36-1.36 1.36-.708 0-1.29-.54-1.355-1.23l-.007-.13V2.317c0-.752.61-1.361 1.362-1.361zm16.335 12.057c-1.826 0-3.306 1.48-3.306 3.306 0 1.825 1.48 3.306 3.306 3.306 1.825 0 3.306-1.48 3.306-3.306s-1.48-3.306-3.306-3.306z" transform="translate(-1194 -176) translate(-482) translate(1676 -1) translate(0 177)"/>
                    </g>
                </g>
            </g>
        </g>
    </g>
</svg>
