<svg xmlns="http://www.w3.org/2000/svg" width="39" height="39" viewBox="0 0 39 39">
    <g fill="none" fill-rule="evenodd" opacity=".1">
        <g fill="#7D4FF6">
            <g>
                <g>
                    <g>
                        <path d="M32.716 28.938c.745 0 1.357.569 1.426 1.295l.007.138v4.69c0 2.02-1.587 3.671-3.583 3.773l-.195.004H9.27c-2.021 0-3.672-1.587-3.773-3.583l-.005-.194v-4.69c0-.791.642-1.433 1.433-1.433.745 0 1.357.569 1.426 1.295l.007.138v4.69c0 .467.352.853.805.905l.107.007H30.37c.468 0 .853-.352.906-.806l.006-.106v-4.69c0-.791.642-1.433 1.433-1.433zM15 18.11l.16.003c.753.042 1.414.499 1.723 1.177l.061.148 3.012 8.288 2.749-6.182c.296-.666.927-1.116 1.644-1.187l.155-.01c.725-.016 1.399.358 1.77.97l.081.146 1.39 2.785h9.662c.744 0 1.356.57 1.426 1.296l.006.138c0 .745-.568 1.357-1.294 1.426l-.138.007H27.224c-.71 0-1.363-.371-1.729-.973l-.079-.143-.824-1.65-2.855 6.425c-.326.771-1.093 1.26-1.929 1.232-.78-.027-1.47-.5-1.773-1.187l-.059-.15-3.054-8.401-1.866 3.734c-.319.634-.944 1.05-1.643 1.106l-.162.007H2.234c-.79 0-1.432-.642-1.432-1.433 0-.745.568-1.357 1.294-1.426l.138-.007 8.494-.001 2.51-5.02c.336-.674 1.017-1.101 1.761-1.118zm12.116-7.669c0 1.384-1.079 2.515-2.44 2.6l-.166.005h-9.378c-1.384 0-2.516-1.078-2.6-2.44l-.006-.165V8.356H9.269c-.468 0-.853.353-.906.806l-.006.107v11.723c0 .792-.642 1.433-1.433 1.433-.745 0-1.357-.568-1.426-1.295l-.007-.138V9.27c0-2.021 1.587-3.672 3.583-3.773l.195-.005h3.27c.124-1.261 1.15-2.258 2.424-2.34l.168-.005h.341l.14-.218C16.465 1.669 17.875.865 19.427.8l.246-.004.145.005.146-.006c1.651-.018 3.171.803 4.071 2.13l.124.193.016.027h.334c1.326 0 2.42.99 2.585 2.272l.007.073h3.27c2.021 0 3.672 1.587 3.773 3.583l.005.195v11.723c0 .792-.642 1.433-1.433 1.433-.745 0-1.357-.568-1.426-1.295l-.007-.138V9.27c0-.468-.352-.853-.805-.906l-.107-.006-3.256-.001v2.085zM20.06 3.662l-.158.003h-.16c-.846-.046-1.622.446-1.945 1.216l-.106.28c-.209.47-.656.794-1.169.844l-.14.007h-.991v4.168h8.857V6.012h-.981c-.523 0-.997-.284-1.247-.727l-.063-.125-.106-.28c-.304-.723-1.007-1.2-1.791-1.218z" transform="translate(-1567 -147) translate(-482) translate(1676 -1) translate(373 148)"/>
                    </g>
                </g>
            </g>
        </g>
    </g>
</svg>
