<svg xmlns="http://www.w3.org/2000/svg" width="334" height="419" viewBox="0 0 334 419">
    <defs>
        <linearGradient id="posnfumema" x1="87.811%" x2="-1.437%" y1="90.736%" y2="9.264%">
            <stop offset="0%" stop-color="#B487FB" stop-opacity="0"/>
            <stop offset="50.871%" stop-color="#AD7FFA" stop-opacity=".218"/>
            <stop offset="100%" stop-color="#f8a1d1"/>
        </linearGradient>
    </defs>
    <g fill="none" fill-rule="evenodd">
        <g fill="url(#posnfumema)" fill-rule="nonzero" transform="translate(-1472 -321)">
            <path d="M1865.56 737.94l5.5.047-.018 2-5.5-.047.018-2zm-11-.095l5.5.047-.018 2-5.5-.048.018-2zm-11-.096l5.5.048-.017 2-5.5-.048.017-2zm-11-.095l5.5.048-.017 2-5.5-.048.018-2zm-10.999-.095l5.5.048-.017 2-5.5-.048.017-2zm-11-.095l5.5.047-.017 2-5.5-.047.018-2zm-10.999-.096l5.5.048-.018 2-5.5-.048.018-2zm-11-.095l5.5.048-.017 2-5.5-.048.017-2zm-11-.095l5.5.048-.017 2-5.5-.048.018-2zm-10.999-.095l5.5.047-.017 2-5.5-.047.017-2zm-11-.095l5.5.047-.017 2-5.5-.047.018-2zm-10.999-.096l5.5.048-.017 2-5.5-.048.017-2zm-11-.095l5.5.048-.017 2-5.5-.048.017-2zm-11-.095l5.5.048-.017 2-5.5-.048.018-2zm-10.999-.095l5.5.047-.017 2-5.5-.047.017-2zm-11-.096l5.5.048-.017 2-5.5-.048.018-2zm-10.999-.095l5.5.048-.017 2-5.5-.048.017-2zm-11-.095l5.5.048-.017 2-5.5-.048.018-2zm-11-.095l5.5.047-.017 2-5.5-.047.018-2zm-10.999-.095l5.5.047-.017 2-5.5-.047.017-2zm-11-.096l5.5.048-.017 2-5.5-.048.018-2zm-10.886-.41c1.43.187 2.871.302 4.316.344l.868.017.203.002-.017 2-.204-.002c-1.514-.014-3.025-.104-4.526-.27l-.9-.108.26-1.983zm-10.373-2.705c1.388.555 2.804 1.036 4.242 1.443l.865.235-.504 1.936c-1.558-.406-3.091-.895-4.595-1.465l-.75-.291.742-1.858zm-9.405-5.202c1.208.881 2.46 1.699 3.751 2.449l.78.442-.969 1.75c-1.406-.779-2.77-1.632-4.087-2.557l-.654-.469 1.18-1.615zm-7.932-7.344l2.065 2.18c.373.395.754.782 1.141 1.161l.587.563-1.372 1.456c-.413-.39-.818-.786-1.217-1.191l-.591-.613-2.065-2.18 1.452-1.376zm-7.563-7.987l3.782 3.994-1.453 1.375-3.781-3.994 1.452-1.375zm-7.564-7.987l3.782 3.994-1.452 1.375-3.782-3.994 1.452-1.375zm-7.563-7.987l3.781 3.994-1.452 1.375-3.782-3.994 1.453-1.375zm-7.564-7.987l3.782 3.994-1.452 1.375-3.782-3.994 1.452-1.375zm-7.057-8.242c.842 1.233 1.748 2.422 2.715 3.562l.587.679-1.498 1.325c-1.067-1.207-2.067-2.468-2.997-3.779l-.459-.66 1.652-1.127zm-4.897-9.545c.511 1.404 1.095 2.78 1.749 4.124l.4.802-1.779.913c-.734-1.431-1.39-2.901-1.968-4.402l-.281-.754 1.88-.683zm-2.383-10.47c.148 1.488.372 2.967.673 4.43l.19.875-1.95.444c-.357-1.568-.63-3.154-.817-4.753l-.086-.8 1.99-.197zm-.208-10.897v5.5h-2v-5.5h2zm0-11v5.5h-2v-5.5h2zm0-11v5.5h-2v-5.5h2zm0-11v5.5h-2v-5.5h2zm0-11v5.5h-2v-5.5h2zm0-11v5.5h-2v-5.5h2zm0-11v5.5h-2v-5.5h2zm0-11v5.5h-2v-5.5h2zm0-11v5.5h-2v-5.5h2zm0-11v5.5h-2v-5.5h2zm0-11v5.5h-2v-5.5h2zm0-11v5.5h-2v-5.5h2zm0-11v5.5h-2v-5.5h2zm0-11v5.5h-2v-5.5h2zm0-11v5.5h-2v-5.5h2zm-.636-11.179c.269 1.583.453 3.182.552 4.79l.042.804-1.998.086c-.065-1.496-.208-2.985-.427-4.46l-.14-.885 1.97-.335zm-3.238-10.723c.653 1.47 1.227 2.974 1.719 4.505l.239.768-1.915.578c-.432-1.431-.938-2.838-1.515-4.216l-.356-.823 1.828-.812zm-5.839-9.66c.998 1.262 1.928 2.576 2.785 3.936l.423.684-1.711 1.036c-.774-1.278-1.614-2.515-2.516-3.706l-.55-.709 1.569-1.24zm-8.016-7.869c1.282.977 2.509 2.02 3.676 3.125l.578.557-1.401 1.428c-1.065-1.046-2.185-2.036-3.356-2.967l-.709-.552 1.212-1.591zm-9.106-6.268l4.55 3.092-1.125 1.654-4.549-3.091 1.124-1.655zm-9.098-6.182l4.549 3.091-1.124 1.654-4.55-3.091 1.125-1.654zm-9.098-6.183l4.549 3.091-1.124 1.655-4.55-3.092 1.125-1.654zm-9.098-6.183l4.549 3.092-1.124 1.654-4.55-3.091 1.125-1.655zm-9.098-6.182l4.549 3.091-1.124 1.654-4.55-3.09 1.125-1.655zm-8.163-7.06c.998 1.111 2.053 2.17 3.163 3.172l.673.594-1.31 1.512c-1.217-1.054-2.376-2.172-3.471-3.348l-.543-.592 1.488-1.337zm-6.113-8.799c.693 1.324 1.455 2.611 2.282 3.856l.504.741-1.643 1.142c-.918-1.322-1.764-2.69-2.535-4.102l-.38-.71 1.772-.927zm-3.757-10.072c.343 1.455.762 2.89 1.254 4.3l.305.843-1.875.698c-.56-1.506-1.041-3.042-1.439-4.6l-.191-.782 1.946-.46zm-1.148-10.703v.832c0 1.22.052 2.437.155 3.649l.087.907-1.989.212c-.134-1.265-.215-2.536-.242-3.811l-.01-.957v-.832h2zm0-11v5.5h-2v-5.5h2zm0-11v5.5h-2v-5.5h2zm0-11v5.5h-2v-5.5h2zm0-11v5.5h-2v-5.5h2zm0-11v5.5h-2v-5.5h2zm5-12v2h-5v4.5h-2v-4.5h-5v-2h12z"/>
        </g>
    </g>
</svg>